<?xml version="1.0" encoding="UTF-8"?>
<svg version="1.1" xmlns="http://www.w3.org/2000/svg" width="500" height="500">
<path d="M0 0 C165 0 330 0 500 0 C500 165 500 330 500 500 C335 500 170 500 0 500 C0 335 0 170 0 0 Z " fill="#FEFEFE" transform="translate(0,0)"/>
<path d="M0 0 C1.22995949 0.9156026 2.45892386 1.83254203 3.6875 2.75 C4.42613281 3.30042969 5.16476563 3.85085937 5.92578125 4.41796875 C7.45012634 5.58060483 8.92751061 6.80546974 10.375 8.0625 C16.75850262 12.77413288 23.29421499 15.20610559 31 16.9375 C40.94966925 19.2267017 48.17416158 22.80939858 54.0390625 31.4609375 C54.35617188 31.96882813 54.67328125 32.47671875 55 33 C55.49628906 32.66226563 55.99257812 32.32453125 56.50390625 31.9765625 C57.18324219 31.53054687 57.86257812 31.08453125 58.5625 30.625 C59.22378906 30.18414062 59.88507813 29.74328125 60.56640625 29.2890625 C68.04432782 25.32804465 75.6421867 25.64651462 83.9375 25.5 C97.62929691 25.41219826 97.62929691 25.41219826 110.375 20.875 C113.81021898 19 113.81021898 19 116 19 C116 18.34 116 17.68 116 17 C116.66 17 117.32 17 118 17 C118.47050781 18.21558594 118.94101562 19.43117187 119.42578125 20.68359375 C120.05410163 22.26846156 120.68303996 23.85308448 121.3125 25.4375 C121.62123047 26.23994141 121.92996094 27.04238281 122.24804688 27.86914062 C122.55419922 28.63291016 122.86035156 29.39667969 123.17578125 30.18359375 C123.59210815 31.24404907 123.59210815 31.24404907 124.0168457 32.32592773 C124.95993609 34.35214643 124.95993609 34.35214643 128 35 C129.359375 37.39477539 129.359375 37.39477539 130.75 40.59765625 C131.53189697 42.37257446 131.53189697 42.37257446 132.32958984 44.18334961 C132.88677846 45.47623379 133.4435733 46.76928773 134 48.0625 C135.15524403 50.71252081 136.31621168 53.36002469 137.4765625 56.0078125 C137.76874664 56.67769699 138.06093079 57.34758148 138.36196899 58.0377655 C140.2783608 62.41530974 142.2753513 66.7430614 144.3359375 71.0546875 C144.84898437 72.13484131 145.36203125 73.21499512 145.890625 74.32788086 C146.8608041 76.36031033 147.84213621 78.38746333 148.8359375 80.40844727 C152.79997162 88.7899904 152.79997162 88.7899904 151 94 C149.24927636 97.50144728 144.88606166 98.00915977 141.34765625 99.23046875 C140.01546303 99.70073235 140.01546303 99.70073235 138.65635681 100.18049622 C135.79410516 101.18971826 132.92855498 102.18913545 130.0625 103.1875 C126.34363285 104.48947439 122.62632472 105.79581216 118.91015625 107.10546875 C117.99328033 107.42828827 117.07640442 107.75110779 116.13174438 108.08370972 C108.01348022 110.95944325 99.99130543 114.05575756 91.98434448 117.22598267 C89.86954075 118.05088719 87.7451424 118.84648007 85.61743164 119.63745117 C82.22748139 120.84324413 82.22748139 120.84324413 80 122 C76.89233688 122.54694871 74.09502626 122.65762784 71 122 C69.08590005 120.40003024 67.79389497 118.78027915 66.38671875 116.7265625 C63.81001501 113.51838489 61.1802092 113.02954249 57.1875 112.375 C54.24479336 112.4135027 53.24216514 112.78804649 50.99609375 114.75390625 C49.77003715 116.18473223 48.58390868 117.65098553 47.4453125 119.15234375 C46 121 46 121 44 122 C41.20890921 122.10891207 38.44238938 122.15732842 35.65063477 122.16113281 C34.78709381 122.16609772 33.92355286 122.17106262 33.03384399 122.17617798 C30.16969006 122.1908149 27.30559148 122.19760359 24.44140625 122.203125 C22.45604958 122.2088745 20.47069293 122.21463226 18.4853363 122.22039795 C14.31989279 122.23091182 10.1544686 122.23675219 5.98901367 122.24023438 C0.64431348 122.24572467 -4.70013267 122.26976251 -10.04475307 122.29820633 C-14.14619195 122.31680249 -18.24756922 122.32203666 -22.34904671 122.32357025 C-24.3198797 122.32660337 -26.29071144 122.33465395 -28.26150322 122.34775543 C-31.01494741 122.36475541 -33.76776529 122.36295077 -36.52124023 122.35644531 C-37.33952805 122.3656601 -38.15781586 122.37487488 -39.00090027 122.3843689 C-44.55770645 122.34311176 -44.55770645 122.34311176 -46.71316624 120.67100143 C-48.86459982 117.87728502 -48.27809271 115.43526284 -48 112 C-47.45210484 108.8498273 -46.71903305 105.75983481 -45.953125 102.65625 C-45.74065125 101.76949585 -45.52817749 100.8827417 -45.30926514 99.96911621 C-44.63022552 97.14423704 -43.94008553 94.32219853 -43.25 91.5 C-42.80139856 89.6355813 -42.35347595 87.77099913 -41.90625 85.90625 C-40.82743028 81.4232097 -39.72708373 76.94590605 -38.61279297 72.47155762 C-38.21607836 70.87150172 -37.82354855 69.27040001 -37.43603516 67.66809082 C-36.9316762 65.58316872 -36.41329076 63.50227059 -35.890625 61.421875 C-35.60735352 60.27299805 -35.32408203 59.12412109 -35.03222656 57.94042969 C-33.95228658 54.8640822 -32.72103922 53.1042643 -30.5 50.75 C-26.08573861 45.83583293 -25.39795064 40.15047741 -24.33007812 33.82519531 C-23.51850525 29.0547777 -22.45059541 25.26100719 -20 21 C-18.22880197 21.14133499 -16.45804713 21.28823208 -14.6875 21.4375 C-13.70136719 21.51871094 -12.71523437 21.59992188 -11.69921875 21.68359375 C-9 22 -9 22 -6 23 C-5.73445313 21.92621094 -5.46890625 20.85242188 -5.1953125 19.74609375 C-4.83860579 18.3098799 -4.48183134 16.87368288 -4.125 15.4375 C-3.95097656 14.73302734 -3.77695313 14.02855469 -3.59765625 13.30273438 C-2.48705185 8.83975002 -1.28798784 4.41512948 0 0 Z " fill="#FCFCFC" transform="translate(198,168)"/>
<path d="M0 0 C1.22995949 0.9156026 2.45892386 1.83254203 3.6875 2.75 C4.42613281 3.30042969 5.16476563 3.85085937 5.92578125 4.41796875 C7.45012634 5.58060483 8.92751061 6.80546974 10.375 8.0625 C16.75850262 12.77413288 23.29421499 15.20610559 31 16.9375 C40.94966925 19.2267017 48.17416158 22.80939858 54.0390625 31.4609375 C54.35617188 31.96882813 54.67328125 32.47671875 55 33 C55.49628906 32.66226563 55.99257812 32.32453125 56.50390625 31.9765625 C57.18324219 31.53054687 57.86257812 31.08453125 58.5625 30.625 C59.22378906 30.18414062 59.88507813 29.74328125 60.56640625 29.2890625 C68.04432782 25.32804465 75.6421867 25.64651462 83.9375 25.5 C97.62929691 25.41219826 97.62929691 25.41219826 110.375 20.875 C113.81021898 19 113.81021898 19 116 19 C116 18.34 116 17.68 116 17 C116.66 17 117.32 17 118 17 C118.47050781 18.21558594 118.94101562 19.43117187 119.42578125 20.68359375 C120.05410163 22.26846156 120.68303996 23.85308448 121.3125 25.4375 C121.62123047 26.23994141 121.92996094 27.04238281 122.24804688 27.86914062 C122.55419922 28.63291016 122.86035156 29.39667969 123.17578125 30.18359375 C123.59210815 31.24404907 123.59210815 31.24404907 124.0168457 32.32592773 C124.95993609 34.35214643 124.95993609 34.35214643 128 35 C129.359375 37.39477539 129.359375 37.39477539 130.75 40.59765625 C131.53189697 42.37257446 131.53189697 42.37257446 132.32958984 44.18334961 C132.88677846 45.47623379 133.4435733 46.76928773 134 48.0625 C135.15524403 50.71252081 136.31621168 53.36002469 137.4765625 56.0078125 C137.76874664 56.67769699 138.06093079 57.34758148 138.36196899 58.0377655 C140.2783608 62.41530974 142.2753513 66.7430614 144.3359375 71.0546875 C144.84898437 72.13484131 145.36203125 73.21499512 145.890625 74.32788086 C146.8608041 76.36031033 147.84213621 78.38746333 148.8359375 80.40844727 C152.79997162 88.7899904 152.79997162 88.7899904 151 94 C149.24927636 97.50144728 144.88606166 98.00915977 141.34765625 99.23046875 C140.01546303 99.70073235 140.01546303 99.70073235 138.65635681 100.18049622 C135.79410516 101.18971826 132.92855498 102.18913545 130.0625 103.1875 C126.34363285 104.48947439 122.62632472 105.79581216 118.91015625 107.10546875 C117.99328033 107.42828827 117.07640442 107.75110779 116.13174438 108.08370972 C108.01348022 110.95944325 99.99130543 114.05575756 91.98434448 117.22598267 C89.86954075 118.05088719 87.7451424 118.84648007 85.61743164 119.63745117 C82.22748139 120.84324413 82.22748139 120.84324413 80 122 C76.89233688 122.54694871 74.09502626 122.65762784 71 122 C69.08590005 120.40003024 67.79389497 118.78027915 66.38671875 116.7265625 C63.81001501 113.51838489 61.1802092 113.02954249 57.1875 112.375 C54.24479336 112.4135027 53.24216514 112.78804649 50.99609375 114.75390625 C49.77003715 116.18473223 48.58390868 117.65098553 47.4453125 119.15234375 C46 121 46 121 44 122 C41.20890921 122.10891207 38.44238938 122.15732842 35.65063477 122.16113281 C34.78709381 122.16609772 33.92355286 122.17106262 33.03384399 122.17617798 C30.16969006 122.1908149 27.30559148 122.19760359 24.44140625 122.203125 C22.45604958 122.2088745 20.47069293 122.21463226 18.4853363 122.22039795 C14.31989279 122.23091182 10.1544686 122.23675219 5.98901367 122.24023438 C0.64431348 122.24572467 -4.70013267 122.26976251 -10.04475307 122.29820633 C-14.14619195 122.31680249 -18.24756922 122.32203666 -22.34904671 122.32357025 C-24.3198797 122.32660337 -26.29071144 122.33465395 -28.26150322 122.34775543 C-31.01494741 122.36475541 -33.76776529 122.36295077 -36.52124023 122.35644531 C-37.33952805 122.3656601 -38.15781586 122.37487488 -39.00090027 122.3843689 C-44.55770645 122.34311176 -44.55770645 122.34311176 -46.71316624 120.67100143 C-48.86459982 117.87728502 -48.27809271 115.43526284 -48 112 C-47.45210484 108.8498273 -46.71903305 105.75983481 -45.953125 102.65625 C-45.74065125 101.76949585 -45.52817749 100.8827417 -45.30926514 99.96911621 C-44.63022552 97.14423704 -43.94008553 94.32219853 -43.25 91.5 C-42.80139856 89.6355813 -42.35347595 87.77099913 -41.90625 85.90625 C-40.82743028 81.4232097 -39.72708373 76.94590605 -38.61279297 72.47155762 C-38.21607836 70.87150172 -37.82354855 69.27040001 -37.43603516 67.66809082 C-36.9316762 65.58316872 -36.41329076 63.50227059 -35.890625 61.421875 C-35.60735352 60.27299805 -35.32408203 59.12412109 -35.03222656 57.94042969 C-33.95228658 54.8640822 -32.72103922 53.1042643 -30.5 50.75 C-26.08573861 45.83583293 -25.39795064 40.15047741 -24.33007812 33.82519531 C-23.51850525 29.0547777 -22.45059541 25.26100719 -20 21 C-18.22880197 21.14133499 -16.45804713 21.28823208 -14.6875 21.4375 C-13.70136719 21.51871094 -12.71523437 21.59992188 -11.69921875 21.68359375 C-9 22 -9 22 -6 23 C-5.73445313 21.92621094 -5.46890625 20.85242188 -5.1953125 19.74609375 C-4.83860579 18.3098799 -4.48183134 16.87368288 -4.125 15.4375 C-3.95097656 14.73302734 -3.77695313 14.02855469 -3.59765625 13.30273438 C-2.48705185 8.83975002 -1.28798784 4.41512948 0 0 Z M2 6 C-2.064021 15.76760411 -3.4783411 25.9075107 -4.86816406 36.32104492 C-5.74632717 42.71437358 -6.97206495 48.85866478 -9 55 C-8.98839844 54.24074219 -8.97679687 53.48148438 -8.96484375 52.69921875 C-8.95582031 51.70535156 -8.94679687 50.71148437 -8.9375 49.6875 C-8.92589844 48.70136719 -8.91429687 47.71523437 -8.90234375 46.69921875 C-9.00467958 43.87065633 -9.7481462 41.70976981 -10.6875 39.0625 C-11.08580007 36.43371952 -10.3546267 35.23114986 -9 33 C-11.60195202 34.87938373 -11.60195202 34.87938373 -14 37 C-14 34.36 -14 31.72 -14 29 C-12.35 28.67 -10.7 28.34 -9 28 C-9 27.34 -9 26.68 -9 26 C-11.97 25.34 -14.94 24.68 -18 24 C-24.75213017 42.32721047 -26.30688672 62.57171024 -26 82 C-24.29422658 82.65256456 -22.58523911 83.29673041 -20.875 83.9375 C-19.92367187 84.29714844 -18.97234375 84.65679687 -17.9921875 85.02734375 C-11.52169252 87.13067697 -5.24000717 87.19210069 1.5 87.1875 C2.97049805 87.1884668 2.97049805 87.1884668 4.47070312 87.18945312 C11.07005871 87.14166319 17.25291209 86.53664447 23.76171875 85.4609375 C33.25179787 84.11011804 41.60538039 84.0254106 50 89 C49.34060948 86.11516649 48.52502474 84.40155494 46.15625 82.58984375 C43.49252619 80.93466754 40.80480366 79.40240183 38 78 C37.67 77.01 37.34 76.02 37 75 C36.67 75.33 36.34 75.66 36 76 C35.67 75.34 35.34 74.68 35 74 C34.34 74.474375 33.68 74.94875 33 75.4375 C29.20553082 77.41378603 26.24627144 77.58233396 22 78 C21.01 78.495 21.01 78.495 20 79 C18 78 18 78 17 76 C16.01 76.495 16.01 76.495 15 77 C14.67 75.35 14.34 73.7 14 72 C12.53626953 71.70996094 12.53626953 71.70996094 11.04296875 71.4140625 C9.77066406 71.15367187 8.49835938 70.89328125 7.1875 70.625 C5.92292969 70.36976563 4.65835938 70.11453125 3.35546875 69.8515625 C0 69 0 69 -3 67 C-1.64648438 67.48339844 -1.64648438 67.48339844 -0.265625 67.9765625 C6.11638882 69.80136947 12.90457658 69.35885803 19.48828125 69.390625 C28.3343584 69.58409935 35.8075405 71.31049768 43.3125 76.125 C48.17612527 81.32794796 51.48634134 87.36014693 54 94 C54.33 94 54.66 94 55 94 C54.67 89.71 54.34 85.42 54 81 C53.01 81 52.02 81 51 81 C50.34 79.68 49.68 78.36 49 77 C49.99 76.67 50.98 76.34 52 76 C50.91215032 72.75016865 50.91215032 72.75016865 49 70 C50.65 69.67 52.3 69.34 54 69 C54.33 66.69 54.66 64.38 55 62 C56.12866889 69.18082254 56.11434249 76.24205132 56.0625 83.5 C56.05798828 84.70398438 56.05347656 85.90796875 56.04882812 87.1484375 C56.0371195 90.09901073 56.02071995 93.04947859 56 96 C55.37939697 95.52908936 54.75879395 95.05817871 54.11938477 94.57299805 C44.93079498 87.75326714 33.96020938 87.89329197 23 89 C18.44137025 89.88295549 14.30300598 91.27144204 10 93 C9.3704541 93.25152832 8.7409082 93.50305664 8.09228516 93.76220703 C4.85227097 95.0583701 1.62502711 96.37231475 -1.58984375 97.73046875 C-4.76728851 98.91336628 -7.64636625 99.57503572 -11 100 C-11 100.66 -11 101.32 -11 102 C-13.12493141 102.02693575 -15.24995912 102.04636628 -17.375 102.0625 C-18.55835938 102.07410156 -19.74171875 102.08570313 -20.9609375 102.09765625 C-24 102 -24 102 -26 101 C-24.02 101 -22.04 101 -20 101 C-20.66 100.67 -21.32 100.34 -22 100 C-22 99.34 -22 98.68 -22 98 C-20.40671875 98.05220703 -20.40671875 98.05220703 -18.78125 98.10546875 C-11.18329668 98.27972137 -4.95920362 98.41394895 2 95 C6.84210526 93 6.84210526 93 9 93 C9.66 92.34 10.32 91.68 11 91 C11.680625 90.835 12.36125 90.67 13.0625 90.5 C13.701875 90.335 14.34125 90.17 15 90 C15.33 89.34 15.66 88.68 16 88 C14.95042114 88.06900513 14.95042114 88.06900513 13.87963867 88.1394043 C10.64979154 88.34095357 7.41898932 88.51435195 4.1875 88.6875 C3.08728516 88.76033203 1.98707031 88.83316406 0.85351562 88.90820312 C-6.68464312 89.28622289 -12.86587825 88.42355332 -20 86 C-20.91305908 85.70375732 -21.82611816 85.40751465 -22.7668457 85.10229492 C-24.85227486 84.42187502 -26.92839651 83.72122492 -29 83 C-29.2165625 84.0828125 -29.2165625 84.0828125 -29.4375 85.1875 C-29.95833333 87.79166667 -30.47916667 90.39583333 -31 93 C-30.09630663 77.32957235 -30.09630663 77.32957235 -29.4375 72.125 C-28.85489412 67.41863684 -28.91103222 62.73506296 -29 58 C-28.34 58 -27.68 58 -27 58 C-27 56.02 -27 54.04 -27 52 C-29.75661088 54.48984209 -31.60746455 56.20549066 -32 60 C-31.67 60.33 -31.34 60.66 -31 61 C-31.66 61.99 -32.32 62.98 -33 64 C-33.39013716 65.9896995 -33.73202649 67.99019869 -34 70 C-33.34 70 -32.68 70 -32 70 C-32 71.32 -32 72.64 -32 74 C-33.98 74.495 -33.98 74.495 -36 75 C-36.33 77.64 -36.66 80.28 -37 83 C-36.01 82.505 -36.01 82.505 -35 82 C-34.67 82.66 -34.34 83.32 -34 84 C-35.98 84.495 -35.98 84.495 -38 85 C-38.75427297 89.97906259 -38.75427297 89.97906259 -39 95 C-38.01 94.505 -38.01 94.505 -37 94 C-37 95.65 -37 97.3 -37 99 C-37.66 98.01 -38.32 97.02 -39 96 C-39.66 97.32 -40.32 98.64 -41 100 C-40.34 100.66 -39.68 101.32 -39 102 C-39.0234375 105.0390625 -39.0234375 105.0390625 -39.375 108.625 C-39.48585937 109.81351562 -39.59671875 111.00203125 -39.7109375 112.2265625 C-39.85402344 113.59941406 -39.85402344 113.59941406 -40 115 C-39.01 115.33 -38.02 115.66 -37 116 C-37 116.99 -37 117.98 -37 119 C-33.04 119 -29.08 119 -25 119 C-24.505 117.515 -24.505 117.515 -24 116 C-25.134375 116.020625 -26.26875 116.04125 -27.4375 116.0625 C-31 116 -31 116 -32 115 C-31.08180481 115.00079559 -30.16360962 115.00159119 -29.21759033 115.00241089 C-20.56545765 115.00461844 -11.91398657 114.97823897 -3.262043 114.9197216 C1.18612409 114.89064551 5.63376327 114.87263675 10.08203125 114.87988281 C14.37478161 114.88646898 18.66648817 114.86403312 22.95902252 114.82144547 C24.59683771 114.81030129 26.2347586 114.80962601 27.87258148 114.81957626 C30.16718933 114.83173027 32.45860181 114.80671144 34.75292969 114.77294922 C36.05864929 114.768508 37.3643689 114.76406677 38.70965576 114.75949097 C42.25770982 114.30191984 42.25770982 114.30191984 44.31231689 111.06887817 C44.86925232 110.05614838 45.42618774 109.04341858 46 108 C48.25 106.125 48.25 106.125 50 105 C49.67 104.01 49.34 103.02 49 102 C45.2039919 100.10199595 41.08182874 99.12050201 37 98 C37 97.34 37 96.68 37 96 C37.61488281 96.2165625 38.22976562 96.433125 38.86328125 96.65625 C39.67152344 96.9346875 40.47976562 97.213125 41.3125 97.5 C42.11300781 97.7784375 42.91351563 98.056875 43.73828125 98.34375 C46.08769422 99.13933107 46.08769422 99.13933107 49 99 C48.34 98.01 47.68 97.02 47 96 C51 100.625 51 100.625 51 104 C51.94101563 104.09796875 52.88203125 104.1959375 53.8515625 104.296875 C66.57974048 105.82531045 66.57974048 105.82531045 71 110 C71.70301059 111.3145335 72.37674253 112.64583149 73 114 C80.04391954 112.75634342 86.72830484 110.97982025 93.5 108.6875 C94.49668701 108.35282715 95.49337402 108.0181543 96.52026367 107.67333984 C106.1967038 104.36890514 115.75911674 100.76722737 125.3125 97.125 C126.07127441 96.83660248 126.83004883 96.54820496 127.61181641 96.25106812 C129.78082649 95.42472396 131.94747815 94.59252112 134.11328125 93.7578125 C135.09141533 93.38480263 135.09141533 93.38480263 136.08930969 93.0042572 C138.99087792 91.87716938 141.39383835 90.7374411 144 89 C143.1325848 83.09675768 140.67796922 77.65271205 138.52734375 72.125 C136.72486482 67.3736957 135.66651177 63.06292597 135 58 C133.33075929 54.95865509 133.33075929 54.95865509 131 54 C131.33 56.64 131.66 59.28 132 62 C129.69 56.06 127.38 50.12 125 44 C125.99 45.65 126.98 47.3 128 49 C128.88336837 46.5332355 129.1312406 45.36140628 128.22265625 42.859375 C127.83980469 42.16328125 127.45695313 41.4671875 127.0625 40.75 C126.49208984 39.69039062 126.49208984 39.69039062 125.91015625 38.609375 C125.45962891 37.81273437 125.45962891 37.81273437 125 37 C124.34 37 123.68 37 123 37 C121.02 32.05 119.04 27.1 117 22 C114.525 22.99 114.525 22.99 112 24 C102.08277051 27.66506307 91.9409328 27.2751077 81.49023438 27.4296875 C73.13145276 27.64528208 62.61159419 28.05765858 55.984375 33.99609375 C53.55289609 38.94589011 54.63424121 45.61521782 55 51 C55.31721863 38.84538424 55.31721863 38.84538424 49.765625 28.53515625 C49.18296875 28.02855469 48.6003125 27.52195313 48 27 C47.47921875 26.52433594 46.9584375 26.04867187 46.421875 25.55859375 C41.34071425 21.72483508 35.37683635 20.76600876 29.28979492 19.44384766 C19.9054849 17.38912995 12.83309378 13.50518639 5 8 C4.01 7.34 3.02 6.68 2 6 Z " fill="#685A58" transform="translate(198,168)"/>
<path d="M0 0 C0.33 0 0.66 0 1 0 C1 1.98 1 3.96 1 6 C0.34 6 -0.32 6 -1 6 C-0.97679687 6.85980469 -0.95359375 7.71960938 -0.9296875 8.60546875 C-0.81741923 15.95904061 -1.29610139 22.82510447 -2.5546875 30.06640625 C-3.11794822 33.77700977 -3.1468103 37.25633738 -3 41 C-1.48046291 36.08417923 -1.48046291 36.08417923 -1 31 C-0.47792969 31.18175781 0.04414063 31.36351562 0.58203125 31.55078125 C3.0470213 32.39259046 5.52040073 33.20221589 8 34 C9.33417969 34.42925781 9.33417969 34.42925781 10.6953125 34.8671875 C16.9965455 36.75217173 22.45279613 37.39680023 29 37 C30.30710938 36.92265625 31.61421875 36.8453125 32.9609375 36.765625 C36.64257796 36.53606186 40.32143257 36.27466637 44 36 C43.34 36.99 42.68 37.98 42 39 C40.68 39 39.36 39 38 39 C37.505 39.99 37.505 39.99 37 41 C36.0925 41.144375 35.185 41.28875 34.25 41.4375 C31.01330304 41.77193231 31.01330304 41.77193231 28.75 43.5 C22.12599578 47.11309321 13.36402089 46.14101317 6 46 C6 46.66 6 47.32 6 48 C6.66 48.33 7.32 48.66 8 49 C5.69 49 3.38 49 1 49 C4.42232972 50.14077657 7.08673217 50.09815117 10.6875 50.0625 C11.86699219 50.05347656 13.04648438 50.04445313 14.26171875 50.03515625 C15.16535156 50.02355469 16.06898438 50.01195312 17 50 C17 49.34 17 48.68 17 48 C18.051875 47.773125 19.10375 47.54625 20.1875 47.3125 C23.98669837 46.36938914 27.54721411 45.06079237 31.1875 43.625 C33.45779659 42.7486083 35.7286293 41.87360412 38 41 C39.00933594 40.59910156 40.01867187 40.19820313 41.05859375 39.78515625 C51.85712959 35.9196931 65.15343208 34.66947527 76.0625 38.875 C78.58668702 40.07276888 80.00747299 41.00747299 82 43 C82.99 43 83.98 43 85 43 C86.62974208 41.3969921 86.62974208 41.3969921 88.1875 39.3125 C93.25251488 33.27508774 99.84824337 28.5941642 107.92771912 27.81381226 C110.12409994 27.74030395 112.31411891 27.72370114 114.51171875 27.7265625 C116.17383471 27.70626163 117.83594403 27.68541063 119.49804688 27.6640625 C122.08688995 27.6415742 124.67546836 27.62502736 127.2644043 27.61914062 C140.50213168 27.61713704 140.50213168 27.61713704 153.07739258 23.75537109 C153.71185303 23.50609863 154.34631348 23.25682617 155 23 C155.66 23.33 156.32 23.66 157 24 C155.65144233 24.80118392 154.29578257 25.59041608 152.9375 26.375 C152.18339844 26.81585938 151.42929687 27.25671875 150.65234375 27.7109375 C144.38773121 30.75559455 138.39520316 31.33998941 131.5625 31.5625 C126.85940942 31.73891282 122.22243513 31.92761876 117.55859375 32.5859375 C114.07639788 32.99111067 112.80287542 32.98537009 110 31 C109.67 31.66 109.34 32.32 109 33 C107.515 32.505 107.515 32.505 106 32 C106.33 32.66 106.66 33.32 107 34 C107.68521729 33.83483887 108.37043457 33.66967773 109.07641602 33.49951172 C112.38113737 32.93488041 115.42522571 32.93889429 118.77734375 33.0078125 C120.09669922 33.02457031 121.41605469 33.04132813 122.77539062 33.05859375 C124.84180548 33.08919291 126.90776834 33.12432274 128.97387695 33.17138672 C140.39977658 33.41716438 151.35138386 32.5458788 162 28 C158.54110281 32.17950077 155.01713599 33.32762134 150 35 C150.66 35.66 151.32 36.32 152 37 C143.20719928 39.76020708 134.36851406 41.04218996 125.25 42.125 C123.86579277 42.29481947 122.48167731 42.46538863 121.09765625 42.63671875 C118.55421683 42.95148657 116.01037798 43.26112111 113.46582031 43.56689453 C109.97058351 44.00367603 106.48550627 44.49181296 103 45 C103.33 45.66 103.66 46.32 104 47 C105.216875 46.855625 106.43375 46.71125 107.6875 46.5625 C108.37199219 46.48128906 109.05648437 46.40007812 109.76171875 46.31640625 C112.03395231 46.02546813 112.03395231 46.02546813 114.375 45.46875 C117.40158243 44.92828885 120.24000641 44.90373633 123.3125 44.9375 C124.91544922 44.95103516 124.91544922 44.95103516 126.55078125 44.96484375 C127.35902344 44.97644531 128.16726563 44.98804688 129 45 C129 45.33 129 45.66 129 46 C127.69804687 46.20496094 126.39609375 46.40992188 125.0546875 46.62109375 C123.32812282 46.89321536 121.60156044 47.16535154 119.875 47.4375 C119.0190625 47.57220703 118.163125 47.70691406 117.28125 47.84570312 C112.85075045 48.54435882 108.42270969 49.25321459 104 50 C104 50.66 104 51.32 104 52 C105.216875 51.54625 106.43375 51.0925 107.6875 50.625 C116.87534398 47.57683164 126.35919593 46.60827433 136 47 C136 47.33 136 47.66 136 48 C135.26998779 48.10022461 134.53997559 48.20044922 133.7878418 48.30371094 C130.41920267 48.77341921 127.05347733 49.26159614 123.6875 49.75 C122.53958984 49.90726562 121.39167969 50.06453125 120.20898438 50.2265625 C112.72792868 51.3285877 105.99040594 53.10986387 99 56 C98.67 55.34 98.34 54.68 98 54 C97.01 54.99 97.01 54.99 96 56 C94.515 55.01 94.515 55.01 93 54 C90.61700383 53.55058745 88.21774516 53.18393057 85.8125 52.875 C84.54019531 52.70742188 83.26789063 52.53984375 81.95703125 52.3671875 C80.49330078 52.18542969 80.49330078 52.18542969 79 52 C78.7834375 51.0409375 78.7834375 51.0409375 78.5625 50.0625 C78.18992819 48.02454854 78.18992819 48.02454854 77 47 C76.01 47 75.02 47 74 47 C71.6603447 46.01488198 69.32671865 45.01529541 67 44 C66.34 44 65.68 44 65 44 C65 44.66 65 45.32 65 46 C66.216875 46.45375 67.43375 46.9075 68.6875 47.375 C71.8080927 48.54452941 74.91230616 49.74562438 78 51 C76.44111903 54.8263442 73.92872044 57.14637496 71 60 C70.505 60.99 70.505 60.99 70 62 C45.58 62.33 21.16 62.66 -4 63 C-1.29120665 64.35439668 1.00933268 64.06501451 4 64 C3.67 64.99 3.34 65.98 3 67 C-0.96 67 -4.92 67 -9 67 C-9 66.01 -9 65.02 -9 64 C-9.99 63.67 -10.98 63.34 -12 63 C-11.90460938 62.08476562 -11.80921875 61.16953125 -11.7109375 60.2265625 C-11.60007813 59.03804688 -11.48921875 57.84953125 -11.375 56.625 C-11.25898438 55.44164062 -11.14296875 54.25828125 -11.0234375 53.0390625 C-11.01570312 52.03617187 -11.00796875 51.03328125 -11 50 C-11.66 49.34 -12.32 48.68 -13 48 C-12.34 46.68 -11.68 45.36 -11 44 C-10.34 44.99 -9.68 45.98 -9 47 C-9 45.02 -9 43.04 -9 41 C-9.66 41.66 -10.32 42.32 -11 43 C-11 39.58900832 -10.50854594 36.36911686 -10 33 C-8.02 32.505 -8.02 32.505 -6 32 C-6.33 31.67 -6.66 31.34 -7 31 C-7.66 31 -8.32 31 -9 31 C-9.20140476 27.37471432 -8.85776765 25.13498292 -7 22 C-6.01 22 -5.02 22 -4 22 C-4 20.68 -4 19.36 -4 18 C-4.66 17.67 -5.32 17.34 -6 17 C-5.7834375 16.15115234 -5.7834375 16.15115234 -5.5625 15.28515625 C-5.376875 14.55167969 -5.19125 13.81820312 -5 13.0625 C-4.814375 12.33160156 -4.62875 11.60070312 -4.4375 10.84765625 C-3.96159748 9.15427575 -3.96159748 9.15427575 -4 8 C-1.21212121 1.21212121 -1.21212121 1.21212121 0 0 Z " fill="#F2F0F0" transform="translate(170,220)"/>
<path d="M0 0 C0.99 0.33 1.98 0.66 3 1 C3.2165625 2.36125 3.2165625 2.36125 3.4375 3.75 C4.17911328 8.03487671 5.25501756 11.80975124 6.8828125 15.84375 C7.42615234 17.21853516 7.42615234 17.21853516 7.98046875 18.62109375 C8.74456055 20.54305844 9.51542229 22.46234525 10.29296875 24.37890625 C10.83244141 25.75369141 10.83244141 25.75369141 11.3828125 27.15625 C11.71684082 27.98962891 12.05086914 28.82300781 12.39501953 29.68164062 C13.09927674 32.38044066 13.31601156 33.52042191 12 36 C9.35058594 37.43286133 9.35058594 37.43286133 5.734375 38.76953125 C5.07314636 39.0187886 4.41191772 39.26804596 3.73065186 39.52485657 C2.27305321 40.07160767 0.81261377 40.61082776 -0.65014648 41.14361572 C-3.07274215 42.02651026 -5.48693662 42.9298369 -7.90039062 43.83740234 C-12.27451734 45.47709732 -16.6573993 47.09172467 -21.04443359 48.6965332 C-23.76192336 49.69186717 -26.47667333 50.69444065 -29.19140625 51.69726562 C-51.78078588 60 -51.78078588 60 -58 60 C-60.25 57.1875 -60.25 57.1875 -62 54 C-61.67 53.01 -61.34 52.02 -61 51 C-60.34 51.66 -59.68 52.32 -59 53 C-58.28263672 52.61908203 -58.28263672 52.61908203 -57.55078125 52.23046875 C-48.26752485 47.90476289 -38.05944876 47.20502367 -28 46 C-37.30099365 46.44805451 -45.95301478 47.84337234 -55 50 C-55 49.34 -55 48.68 -55 48 C-49.01955594 46.28048715 -43.19240462 44.68804496 -37 44 C-43.33881314 44.62197123 -49.67094142 45.28542887 -56 46 C-56 45.01 -56 44.02 -56 43 C-47.61098304 40.66371 -39.40771549 39.29214598 -30.75 38.4375 C-23.66191307 37.72297511 -16.86364277 36.95027898 -10 35 C-10.33 34.34 -10.66 33.68 -11 33 C-7.04 31.35 -3.08 29.7 1 28 C0.01 28.33 -0.98 28.66 -2 29 C-12.37884802 31.80287328 -21.84143315 32.36026112 -32.5 32.125 C-34.62672393 32.08965145 -36.75338136 32.05892479 -38.88024902 32.03366089 C-40.78813802 32.00931941 -42.69585063 31.97212448 -44.60351562 31.93408203 C-47.84311783 31.99695528 -50.82480887 32.3784242 -54 33 C-53.67 31.68 -53.34 30.36 -53 29 C-51.39592672 28.97291433 -49.7917215 28.95356517 -48.1875 28.9375 C-47.29417969 28.92589844 -46.40085937 28.91429687 -45.48046875 28.90234375 C-43 29 -43 29 -40 30 C-37.99615733 29.69060438 -35.9966394 29.35290542 -34 29 C-31.43827423 28.87827069 -28.87561079 28.77536374 -26.3125 28.6875 C-16.73908618 28.22736704 -8.1276284 25.53236623 -0.1875 20.0625 C2.73681198 15.96846322 2.15107394 13.50816397 1.46484375 8.671875 C1.31144531 7.79015625 1.15804687 6.9084375 1 6 C0.814375 4.783125 0.62875 3.56625 0.4375 2.3125 C0.293125 1.549375 0.14875 0.78625 0 0 Z " fill="#FAFAFA" transform="translate(329,222)"/>
<path d="M0 0 C2.6881249 -0.08164159 5.373723 -0.14079668 8.0625 -0.1875 C8.81466797 -0.21263672 9.56683594 -0.23777344 10.34179688 -0.26367188 C17.10611794 -0.3515202 21.6695519 1.01663991 26.9375 5.5 C30.20322577 9.81118914 29.6734847 14.8723324 29 20 C27.58864826 24.76331211 25.0897708 27.60153921 20.87109375 30.09765625 C14.23576978 32.18304378 6.87007729 31.33029218 0 31 C0.66 30.34 1.32 29.68 2 29 C2.31178425 26.21692252 2.31178425 26.21692252 2.265625 22.96875 C2.26820313 21.76605469 2.27078125 20.56335938 2.2734375 19.32421875 C2.26570313 18.06222656 2.25796875 16.80023438 2.25 15.5 C2.25773437 14.23800781 2.26546875 12.97601563 2.2734375 11.67578125 C2.26957031 9.87173828 2.26957031 9.87173828 2.265625 8.03125 C2.26336914 6.92330078 2.26111328 5.81535156 2.25878906 4.67382812 C2.27117301 1.84737418 2.27117301 1.84737418 0 0 Z " fill="#F7F6F6" transform="translate(301,301)"/>
<path d="M0 0 C0.33 0 0.66 0 1 0 C1 1.98 1 3.96 1 6 C0.34 6 -0.32 6 -1 6 C-0.97679687 6.85980469 -0.95359375 7.71960938 -0.9296875 8.60546875 C-0.81741923 15.95904061 -1.29610139 22.82510447 -2.5546875 30.06640625 C-3.11794822 33.77700977 -3.1468103 37.25633738 -3 41 C-1.48046291 36.08417923 -1.48046291 36.08417923 -1 31 C-0.47792969 31.18175781 0.04414063 31.36351562 0.58203125 31.55078125 C3.0470213 32.39259046 5.52040073 33.20221589 8 34 C9.33417969 34.42925781 9.33417969 34.42925781 10.6953125 34.8671875 C16.9965455 36.75217173 22.45279613 37.39680023 29 37 C30.30710938 36.92265625 31.61421875 36.8453125 32.9609375 36.765625 C36.64257796 36.53606186 40.32143257 36.27466637 44 36 C43.34 36.99 42.68 37.98 42 39 C40.68 39 39.36 39 38 39 C37.505 39.99 37.505 39.99 37 41 C36.0925 41.144375 35.185 41.28875 34.25 41.4375 C31.01330304 41.77193231 31.01330304 41.77193231 28.75 43.5 C22.12599578 47.11309321 13.36402089 46.14101317 6 46 C6 46.66 6 47.32 6 48 C1.05 46.515 1.05 46.515 -4 45 C-4.433125 46.52625 -4.86625 48.0525 -5.3125 49.625 C-6.51599109 53.6595606 -7.95615983 57.30162255 -10 61 C-8.576875 61.185625 -8.576875 61.185625 -7.125 61.375 C-4 62 -4 62 -2 64 C1.08347826 64.16681109 1.08347826 64.16681109 4 64 C3.67 64.99 3.34 65.98 3 67 C-0.96 67 -4.92 67 -9 67 C-9 66.01 -9 65.02 -9 64 C-9.99 63.67 -10.98 63.34 -12 63 C-11.90460938 62.08476562 -11.80921875 61.16953125 -11.7109375 60.2265625 C-11.60007813 59.03804688 -11.48921875 57.84953125 -11.375 56.625 C-11.25898438 55.44164062 -11.14296875 54.25828125 -11.0234375 53.0390625 C-11.01570312 52.03617187 -11.00796875 51.03328125 -11 50 C-11.66 49.34 -12.32 48.68 -13 48 C-12.34 46.68 -11.68 45.36 -11 44 C-10.34 44.99 -9.68 45.98 -9 47 C-9 45.02 -9 43.04 -9 41 C-9.66 41.66 -10.32 42.32 -11 43 C-11 39.58900832 -10.50854594 36.36911686 -10 33 C-8.02 32.505 -8.02 32.505 -6 32 C-6.33 31.67 -6.66 31.34 -7 31 C-7.66 31 -8.32 31 -9 31 C-9.20140476 27.37471432 -8.85776765 25.13498292 -7 22 C-6.01 22 -5.02 22 -4 22 C-4 20.68 -4 19.36 -4 18 C-4.66 17.67 -5.32 17.34 -6 17 C-5.7834375 16.15115234 -5.7834375 16.15115234 -5.5625 15.28515625 C-5.376875 14.55167969 -5.19125 13.81820312 -5 13.0625 C-4.814375 12.33160156 -4.62875 11.60070312 -4.4375 10.84765625 C-3.96159748 9.15427575 -3.96159748 9.15427575 -4 8 C-1.21212121 1.21212121 -1.21212121 1.21212121 0 0 Z " fill="#968C8A" transform="translate(170,220)"/>
<path d="M0 0 C11.88 0 23.76 0 36 0 C36.495 2.97 36.495 2.97 37 6 C36.030625 5.360625 35.06125 4.72125 34.0625 4.0625 C29.76403412 1.56974213 25.91524535 1.30247664 21 1 C21 5.62 21 10.24 21 15 C27.91295034 14.72728459 27.91295034 14.72728459 34 12 C34 14.64 34 17.28 34 20 C33.34 19.67 32.68 19.34 32 19 C32 18.34 32 17.68 32 17 C28.37 16.67 24.74 16.34 21 16 C21 20.62 21 25.24 21 30 C28.65560326 29.994921 28.65560326 29.994921 35.0625 26.5 C36.0215625 25.2625 36.0215625 25.2625 37 24 C37.66 23.67 38.32 23.34 39 23 C38.34 25.97 37.68 28.94 37 32 C25.45 31.67 13.9 31.34 2 31 C2.125 16.625 2.125 16.625 2.18017578 12.09228516 C2.1851709 10.91972168 2.19016602 9.7471582 2.1953125 8.5390625 C2.20578613 7.33459473 2.21625977 6.13012695 2.22705078 4.88916016 C2.30460814 1.87158505 2.30460814 1.87158505 0 0 Z " fill="#FCFCFC" transform="translate(260,301)"/>
<path d="M0 0 C3.50483036 7.00966071 3.15960013 14.43223699 3.125 22.125 C3.12886719 22.99253906 3.13273437 23.86007813 3.13671875 24.75390625 C3.1298247 29.28329798 2.92059743 33.54313943 2 38 C0.35 37.67 -1.3 37.34 -3 37 C-3 36.34 -3 35.68 -3 35 C-3.556875 34.87625 -4.11375 34.7525 -4.6875 34.625 C-7 34 -7 34 -9.1875 33 C-12.6123854 31.78226297 -15.68808684 31.57823812 -19.3125 31.375 C-20.56675781 31.30023438 -21.82101563 31.22546875 -23.11328125 31.1484375 C-24.06589844 31.09945313 -25.01851562 31.05046875 -26 31 C-25.34 30.01 -24.68 29.02 -24 28 C-24.99 27.34 -25.98 26.68 -27 26 C-18.55666209 25.57308966 -12.24096313 25.36578359 -5 30 C-6.16279392 26.51161825 -6.81767437 26.2237397 -9.875 24.4375 C-10.57367188 24.02371094 -11.27234375 23.60992187 -11.9921875 23.18359375 C-12.65476563 22.79300781 -13.31734375 22.40242188 -14 22 C-14.99 21.34 -15.98 20.68 -17 20 C-17.99 20.33 -18.98 20.66 -20 21 C-20 20.01 -20 19.02 -20 18 C-20.495 18.309375 -20.99 18.61875 -21.5 18.9375 C-23.86917395 19.94439893 -25.59560696 20.27736842 -28.125 20.5625 C-31.78900424 20.75115044 -31.78900424 20.75115044 -34 22 C-34.99 21.34 -35.98 20.68 -37 20 C-37.99 20.33 -38.98 20.66 -40 21 C-40.33 19.02 -40.66 17.04 -41 15 C-41.85722656 14.82984375 -42.71445313 14.6596875 -43.59765625 14.484375 C-50.1082629 13.10444935 -55.46470696 11.73310461 -61 8 C-59 7 -59 7 -57.27099609 7.54321289 C-56.22032959 7.97234985 -56.22032959 7.97234985 -55.1484375 8.41015625 C-48.37208049 10.79583492 -41.51985968 10.43513086 -34.4140625 10.43945312 C-24.89566953 10.60859124 -15.7093222 12.4225121 -8.56640625 19.15234375 C-4.8512785 23.53452686 -1.8169383 28.54918509 0 34 C-0.495 28.555 -0.495 28.555 -1 23 C-1.99 23 -2.98 23 -4 23 C-5.6875 21 -5.6875 21 -7 19 C-6.67 18.34 -6.34 17.68 -6 17 C-5.01 17 -4.02 17 -3 17 C-3.495 15.02 -3.495 15.02 -4 13 C-4.66 13 -5.32 13 -6 13 C-5.67 12.34 -5.34 11.68 -5 11 C-3.68 10.67 -2.36 10.34 -1 10 C-0.67 6.7 -0.34 3.4 0 0 Z " fill="#7B6F6D" transform="translate(252,226)"/>
<path d="M0 0 C0.99 0.495 0.99 0.495 2 1 C0.65144233 1.80118392 -0.70421743 2.59041608 -2.0625 3.375 C-2.81660156 3.81585938 -3.57070313 4.25671875 -4.34765625 4.7109375 C-10.61226879 7.75559455 -16.60479684 8.33998941 -23.4375 8.5625 C-28.14059058 8.73891282 -32.77756487 8.92761876 -37.44140625 9.5859375 C-40.92360212 9.99111067 -42.19712458 9.98537009 -45 8 C-45.33 8.66 -45.66 9.32 -46 10 C-46.99 9.67 -47.98 9.34 -49 9 C-48.67 9.66 -48.34 10.32 -48 11 C-47.31478271 10.83483887 -46.62956543 10.66967773 -45.92358398 10.49951172 C-42.61886263 9.93488041 -39.57477429 9.93889429 -36.22265625 10.0078125 C-34.24362305 10.03294922 -34.24362305 10.03294922 -32.22460938 10.05859375 C-30.15819452 10.08919291 -28.09223166 10.12432274 -26.02612305 10.17138672 C-14.60022342 10.41716438 -3.64861614 9.5458788 7 5 C3.54110281 9.17950077 0.01713599 10.32762134 -5 12 C-4.01 12.99 -4.01 12.99 -3 14 C-11.79280072 16.76020708 -20.63148594 18.04218996 -29.75 19.125 C-31.13420723 19.29481947 -32.51832269 19.46538863 -33.90234375 19.63671875 C-36.44578317 19.95148657 -38.98962202 20.26112111 -41.53417969 20.56689453 C-45.02941649 21.00367603 -48.51449373 21.49181296 -52 22 C-46.77939858 16.77939858 -36.15971918 17.20141271 -29.1875 16.4375 C-26.95150351 16.18905595 -24.71580816 15.93788191 -22.48046875 15.68359375 C-21.49973389 15.57587646 -20.51899902 15.46815918 -19.50854492 15.35717773 C-16.8788525 15.05925152 -16.8788525 15.05925152 -14 14 C-18.75090911 14.09380557 -23.50132484 14.19995867 -28.25170898 14.31738281 C-29.8665417 14.35558072 -31.48145684 14.39044945 -33.09643555 14.421875 C-35.42266217 14.46772609 -37.74832592 14.52568584 -40.07421875 14.5859375 C-41.15107185 14.60326431 -41.15107185 14.60326431 -42.24967957 14.62094116 C-46.24658602 14.73767501 -49.39334769 15.24740681 -53 17 C-53 17.66 -53 18.32 -53 19 C-55 20.625 -55 20.625 -57 22 C-57.66 21.67 -58.32 21.34 -59 21 C-59 20.34 -59 19.68 -59 19 C-59.7425 19.33 -60.485 19.66 -61.25 20 C-64 21 -64 21 -68 21 C-68 17 -68 17 -66.53125 15.21875 C-58.40072103 8.33907164 -51.52278476 4.88147684 -40.78125 4.82421875 C-39.10936275 4.80099579 -37.43748775 4.7768775 -35.765625 4.75195312 C-33.14379983 4.71705728 -30.52241816 4.6876158 -27.90039062 4.67407227 C-14.57348325 4.64187457 -14.57348325 4.64187457 -1.91601562 0.75317383 C-1.28373047 0.50462646 -0.65144531 0.2560791 0 0 Z " fill="#766A67" transform="translate(325,243)"/>
<path d="M0 0 C0 0.66 0 1.32 0 2 C0.99 2.99 1.98 3.98 3 5 C-1.455 5.495 -1.455 5.495 -6 6 C-6 6.33 -6 6.66 -6 7 C-9.3 7.33 -12.6 7.66 -16 8 C-9.4 8.33 -2.8 8.66 4 9 C4 9.99 4 10.98 4 12 C-22.73 12 -49.46 12 -77 12 C-73.78908859 8.78908859 -73.57838406 8.62568752 -69.40234375 8.5234375 C-68.51869141 8.4925 -67.63503906 8.4615625 -66.72460938 8.4296875 C-65.80486328 8.41164063 -64.88511719 8.39359375 -63.9375 8.375 C-62.11317229 8.32407669 -60.28894014 8.26956441 -58.46484375 8.2109375 C-57.656521 8.19337402 -56.84819824 8.17581055 -56.01538086 8.15771484 C-53.92981168 8.12160163 -53.92981168 8.12160163 -52 7 C-52 6.34 -52 5.68 -52 5 C-51.3922876 4.9906543 -50.7845752 4.98130859 -50.15844727 4.97167969 C-39.04513828 4.75814337 -28.51762823 4.29863399 -17.76025391 1.38085938 C-11.76522462 -0.2044568 -6.15951233 -0.42724941 0 0 Z " fill="#F2F1F1" transform="translate(236,270)"/>
<path d="M0 0 C-7.32172326 4.88114884 -18.29983264 4.59317785 -26.875 5.5625 C-29.06010572 5.8119705 -31.24501077 6.06320646 -33.4296875 6.31640625 C-34.38085449 6.42412354 -35.33202148 6.53184082 -36.31201172 6.64282227 C-38.90563148 6.98746039 -41.44143264 7.45629718 -44 8 C-43.67 8.99 -43.34 9.98 -43 11 C-41.1746875 10.7834375 -41.1746875 10.7834375 -39.3125 10.5625 C-38.62800781 10.48128906 -37.94351562 10.40007812 -37.23828125 10.31640625 C-34.96604769 10.02546813 -34.96604769 10.02546813 -32.625 9.46875 C-29.59841757 8.92828885 -26.75999359 8.90373633 -23.6875 8.9375 C-22.08455078 8.95103516 -22.08455078 8.95103516 -20.44921875 8.96484375 C-19.64097656 8.97644531 -18.83273437 8.98804688 -18 9 C-18 9.33 -18 9.66 -18 10 C-19.30195313 10.20496094 -20.60390625 10.40992188 -21.9453125 10.62109375 C-23.67187718 10.89321536 -25.39843956 11.16535154 -27.125 11.4375 C-27.9809375 11.57220703 -28.836875 11.70691406 -29.71875 11.84570312 C-34.14924955 12.54435882 -38.57729031 13.25321459 -43 14 C-43 14.66 -43 15.32 -43 16 C-41.1746875 15.319375 -41.1746875 15.319375 -39.3125 14.625 C-30.12465602 11.57683164 -20.64080407 10.60827433 -11 11 C-11 11.33 -11 11.66 -11 12 C-11.73001221 12.10022461 -12.46002441 12.20044922 -13.2121582 12.30371094 C-16.58079733 12.77341921 -19.94652267 13.26159614 -23.3125 13.75 C-24.46041016 13.90726562 -25.60832031 14.06453125 -26.79101562 14.2265625 C-34.27207132 15.3285877 -41.00959406 17.10986387 -48 20 C-48.33 19.34 -48.66 18.68 -49 18 C-49.66 18.66 -50.32 19.32 -51 20 C-52.98 19.01 -54.96 18.02 -57 17 C-56.67 15.35 -56.34 13.7 -56 12 C-58.475 13.485 -58.475 13.485 -61 15 C-61.33 14.01 -61.66 13.02 -62 12 C-61.67 11.34 -61.34 10.68 -61 10 C-62.97536745 10.34786708 -62.97536745 10.34786708 -65 11 C-65.33 11.66 -65.66 12.32 -66 13 C-67.5625 10.6875 -67.5625 10.6875 -69 8 C-68.67 7.01 -68.34 6.02 -68 5 C-67.34 5 -66.68 5 -66 5 C-65.67 5.66 -65.34 6.32 -65 7 C-64.2575 7 -63.515 7 -62.75 7 C-60.5 7 -58.25 7 -56 7 C-54.31301918 6.38655243 -52.64034193 5.72904086 -51 5 C-50.34 5.66 -49.68 6.32 -49 7 C-48.34 6.34 -47.68 5.68 -47 5 C-42.29780893 1.20791043 -38.36676555 0.8222664 -32.48046875 0.68359375 C-31.74427811 0.66281265 -31.00808746 0.64203156 -30.24958801 0.62062073 C-27.89565235 0.55531712 -25.54160292 0.49643075 -23.1875 0.4375 C-21.61392127 0.3942796 -20.04035334 0.3506642 -18.46679688 0.30664062 C-12.31054204 0.13876015 -6.15937184 -0.0282127 0 0 Z " fill="#C6C1C0" transform="translate(317,256)"/>
<path d="M0 0 C6.81987029 0.43300764 11.91643021 1.90787824 18 5 C17.01 3.68 16.02 2.36 15 1 C18.35620271 2.38877354 20.07298728 3.91677965 22 7 C22 7.66 22 8.32 22 9 C23.28583984 9.12955078 23.28583984 9.12955078 24.59765625 9.26171875 C31.76555834 10.14255452 36.70296425 10.94373861 42 16 C42.671875 18.1640625 42.671875 18.1640625 43 20 C44.01320313 19.65775391 44.01320313 19.65775391 45.046875 19.30859375 C45.93890625 19.02113281 46.8309375 18.73367188 47.75 18.4375 C48.63171875 18.14746094 49.5134375 17.85742188 50.421875 17.55859375 C53.07834316 16.98302565 54.47031106 17.10751629 57 18 C57 18.99 57 19.98 57 21 C56.01 21 55.02 21 54 21 C54 21.66 54 22.32 54 23 C47.0843949 26.85987261 47.0843949 26.85987261 43 26 C40.9375 23.75 40.9375 23.75 39 21 C37.44873221 18.7130981 37.44873221 18.7130981 35 17 C32.10550051 16.7093876 29.62050065 16.61813955 26.75 16.75 C26.00492188 16.76804687 25.25984375 16.78609375 24.4921875 16.8046875 C22.66090299 16.85164351 20.83028351 16.92338348 19 17 C18.67 18.32 18.34 19.64 18 21 C17.34 21 16.68 21 16 21 C15.67 21.66 15.34 22.32 15 23 C14.67 22.01 14.34 21.02 14 20 C15.16047607 18.10543489 16.53981656 16.51516489 17.96875 14.81640625 C19.17650938 13.04405398 19.17650938 13.04405398 18.9765625 10.90234375 C18.12698433 8.78491835 18.12698433 8.78491835 15.7421875 7.875 C14.32292969 7.441875 14.32292969 7.441875 12.875 7 C8.14950195 5.44742437 4.21475226 3.62251252 0 1 C0 0.67 0 0.34 0 0 Z " fill="#6A5C5A" transform="translate(228,262)"/>
<path d="M0 0 C0.99 0.33 1.98 0.66 3 1 C3.144375 1.9075 3.28875 2.815 3.4375 3.75 C4.1515314 7.87551476 5.19194236 11.53280878 6.6875 15.4375 C7.72314016 18.50905715 8.06385326 19.69988968 7.375 22.9375 C5.22359134 26.16461299 2.48650157 27.31485247 -1.0625 28.5 C-1.75472656 28.7371875 -2.44695312 28.974375 -3.16015625 29.21875 C-12.94399524 31.91031506 -22.17331958 32.21901987 -32.25 32.0625 C-34.40361724 32.03469735 -36.55716037 32.01001546 -38.71087646 31.99131775 C-40.65400332 31.97367001 -42.59703419 31.94623942 -44.54003906 31.91821289 C-47.7986976 31.99524158 -50.8056899 32.37527914 -54 33 C-53.67 31.68 -53.34 30.36 -53 29 C-51.39592672 28.97291433 -49.7917215 28.95356517 -48.1875 28.9375 C-47.29417969 28.92589844 -46.40085937 28.91429687 -45.48046875 28.90234375 C-43 29 -43 29 -40 30 C-37.99615733 29.69060438 -35.9966394 29.35290542 -34 29 C-31.43827423 28.87827069 -28.87561079 28.77536374 -26.3125 28.6875 C-16.73908618 28.22736704 -8.1276284 25.53236623 -0.1875 20.0625 C2.73681198 15.96846322 2.15107394 13.50816397 1.46484375 8.671875 C1.31144531 7.79015625 1.15804687 6.9084375 1 6 C0.814375 4.783125 0.62875 3.56625 0.4375 2.3125 C0.293125 1.549375 0.14875 0.78625 0 0 Z " fill="#F0EFEE" transform="translate(329,222)"/>
<path d="M0 0 C0.97356445 0.31723022 0.97356445 0.31723022 1.96679688 0.64086914 C10.29947449 3.15944904 18.03295925 3.43414599 26.68359375 3.43945312 C37.69824276 3.63687267 46.06514979 6.2414798 54 14 C53.67 14.99 53.34 15.98 53 17 C52.51789063 16.57847656 52.03578125 16.15695313 51.5390625 15.72265625 C50.90742188 15.17480469 50.27578125 14.62695312 49.625 14.0625 C48.99851563 13.51722656 48.37203125 12.97195312 47.7265625 12.41015625 C46.04367666 10.93041376 46.04367666 10.93041376 44 10 C43.34 11.32 42.68 12.64 42 14 C42 13.01 42 12.02 42 11 C39.24358584 11.49756092 39.24358584 11.49756092 37 13 C34.972246 13.25749257 32.94371791 13.51207223 30.91015625 13.71875 C28.91911653 13.91037786 28.91911653 13.91037786 27 15 C26.01 14.34 25.02 13.68 24 13 C23.01 13.33 22.02 13.66 21 14 C20.67 12.02 20.34 10.04 20 8 C19.14277344 7.82984375 18.28554687 7.6596875 17.40234375 7.484375 C10.8917371 6.10444935 5.53529304 4.73310461 0 1 C0 0.67 0 0.34 0 0 Z " fill="#635552" transform="translate(191,233)"/>
<path d="M0 0 C7.59 0 15.18 0 23 0 C23.33 1.98 23.66 3.96 24 6 C23.030625 5.360625 22.06125 4.72125 21.0625 4.0625 C16.76403412 1.56974213 12.91524535 1.30247664 8 1 C8 5.62 8 10.24 8 15 C14.91295034 14.72728459 14.91295034 14.72728459 21 12 C21 14.64 21 17.28 21 20 C20.34 19.67 19.68 19.34 19 19 C19 18.34 19 17.68 19 17 C15.37 16.67 11.74 16.34 8 16 C8 20.62 8 25.24 8 30 C15.65560326 29.994921 15.65560326 29.994921 22.0625 26.5 C22.701875 25.675 23.34125 24.85 24 24 C24.66 23.67 25.32 23.34 26 23 C25.34 25.97 24.68 28.94 24 32 C16.08 31.67 8.16 31.34 0 31 C0.66 30.34 1.32 29.68 2 29 C2.31178425 26.21692252 2.31178425 26.21692252 2.265625 22.96875 C2.26820313 21.76605469 2.27078125 20.56335938 2.2734375 19.32421875 C2.26570313 18.06222656 2.25796875 16.80023438 2.25 15.5 C2.25773437 14.23800781 2.26546875 12.97601563 2.2734375 11.67578125 C2.26957031 9.87173828 2.26957031 9.87173828 2.265625 8.03125 C2.26336914 6.92330078 2.26111328 5.81535156 2.25878906 4.67382812 C2.27117301 1.84737418 2.27117301 1.84737418 0 0 Z " fill="#594A47" transform="translate(273,301)"/>
<path d="M0 0 C9.24 0 18.48 0 28 0 C27.34 2.97 26.68 5.94 26 9 C25.67 9 25.34 9 25 9 C24.814375 8.05125 24.62875 7.1025 24.4375 6.125 C23.963125 5.09375 23.48875 4.0625 23 3 C20.69 2.34 18.38 1.68 16 1 C16 10.57 16 20.14 16 30 C16.99 30.33 17.98 30.66 19 31 C15.7 31 12.4 31 9 31 C9.66 30.67 10.32 30.34 11 30 C11 20.43 11 10.86 11 1 C3.31318462 3.5639682 3.31318462 3.5639682 -1 9 C-0.67 6.03 -0.34 3.06 0 0 Z " fill="#5E504D" transform="translate(231,301)"/>
<path d="M0 0 C0.99 0.495 0.99 0.495 2 1 C1.47599609 1.70576172 1.47599609 1.70576172 0.94140625 2.42578125 C0.48636719 3.04839844 0.03132813 3.67101562 -0.4375 4.3125 C-0.88996094 4.92738281 -1.34242188 5.54226563 -1.80859375 6.17578125 C-3.17336308 8.09677101 -3.17336308 8.09677101 -4 11 C-6.93756119 11.0269501 -9.87487555 11.04681474 -12.8125 11.0625 C-13.64587891 11.07087891 -14.47925781 11.07925781 -15.33789062 11.08789062 C-16.54155273 11.09272461 -16.54155273 11.09272461 -17.76953125 11.09765625 C-18.50792236 11.10289307 -19.24631348 11.10812988 -20.00708008 11.11352539 C-22 11 -22 11 -25 10 C-25 10.66 -25 11.32 -25 12 C-29.29 12 -33.58 12 -38 12 C-38 11.34 -38 10.68 -38 10 C-38.58007812 10.16757812 -39.16015625 10.33515625 -39.7578125 10.5078125 C-44.8492308 11.835278 -48.03561901 12.29125276 -53 10 C-53.33 10.66 -53.66 11.32 -54 12 C-54 11.34 -54 10.68 -54 10 C-56.31 10.66 -58.62 11.32 -61 12 C-61 11.34 -61 10.68 -61 10 C-64.3 10 -67.6 10 -71 10 C-71 10.66 -71 11.32 -71 12 C-77.625 11.25 -77.625 11.25 -81 9 C-80 8 -80 8 -77.07041931 7.87974548 C-75.75803787 7.88196609 -74.44565643 7.88418671 -73.09350586 7.88647461 C-72.37159561 7.88632858 -71.64968536 7.88618256 -70.90589905 7.8860321 C-68.50885053 7.88673131 -66.11187877 7.89452405 -63.71484375 7.90234375 C-62.05717511 7.9042079 -60.39950593 7.90563182 -58.74183655 7.90663147 C-54.37045786 7.91045688 -49.99911219 7.92028735 -45.62774658 7.93133545 C-41.17045539 7.94154908 -36.71315889 7.94612899 -32.25585938 7.95117188 C-23.50389107 7.9619096 -14.75194964 7.97898629 -6 8 C-5.71382813 7.21238281 -5.42765625 6.42476563 -5.1328125 5.61328125 C-3.86490286 2.68834486 -2.65307593 1.68028142 0 0 Z " fill="#5C4E4B" transform="translate(246,274)"/>
<path d="M0 0 C0.91136719 -0.02578125 1.82273438 -0.0515625 2.76171875 -0.078125 C5.74806137 0.30602933 7.09060862 1.27267278 9.3125 3.25 C8.04277344 3.46914063 6.77304688 3.68828125 5.46484375 3.9140625 C-5.59364181 5.91763794 -15.4197806 8.67203594 -25.6875 13.25 C-29.61561044 14.95293805 -32.37735602 15.45047181 -36.6875 15.25 C-36.6875 15.91 -36.6875 16.57 -36.6875 17.25 C-39.260829 18.5366645 -41.18973038 18.41824551 -44.0625 18.4375 C-45.49722656 18.45876953 -45.49722656 18.45876953 -46.9609375 18.48046875 C-49.71760017 18.24745572 -51.33697395 17.65920164 -53.6875 16.25 C-51.6875 15.25 -51.6875 15.25 -47.6875 15.25 C-47.6875 14.59 -47.6875 13.93 -47.6875 13.25 C-46.6253125 13.21261719 -45.563125 13.17523438 -44.46875 13.13671875 C-36.99663482 12.81172899 -30.55297508 12.4808118 -23.6875 9.25 C-22.6975 8.92 -21.7075 8.59 -20.6875 8.25 C-20.0275 7.59 -19.3675 6.93 -18.6875 6.25 C-18.6875 6.91 -18.6875 7.57 -18.6875 8.25 C-18.0275 8.25 -17.3675 8.25 -16.6875 8.25 C-16.3575 7.26 -16.0275 6.27 -15.6875 5.25 C-14.3675 4.92 -13.0475 4.59 -11.6875 4.25 C-17.9575 3.92 -24.2275 3.59 -30.6875 3.25 C-30.6875 2.92 -30.6875 2.59 -30.6875 2.25 C-29.46933594 2.18941406 -28.25117188 2.12882813 -26.99609375 2.06640625 C-25.37238723 1.98193597 -23.74868978 1.89729128 -22.125 1.8125 C-21.32513672 1.77318359 -20.52527344 1.73386719 -19.70117188 1.69335938 C-13.10012583 1.34309979 -6.60422935 0.11305385 0 0 Z " fill="#776A68" transform="translate(223.6875,252.75)"/>
<path d="M0 0 C3.04386724 -0.08226668 5.07175348 0.02391783 8 1 C16.29736538 1.56422085 24.72603334 0.61778951 33 0 C32.34 0.99 31.68 1.98 31 3 C29.68 3 28.36 3 27 3 C26.67 3.66 26.34 4.32 26 5 C25.0925 5.144375 24.185 5.28875 23.25 5.4375 C20.01330304 5.77193231 20.01330304 5.77193231 17.75 7.5 C11.37832146 10.97546102 3.084894 10.11427248 -4 10 C-3 7 -3 7 -0.9375 5.8125 C-0.298125 5.544375 0.34125 5.27625 1 5 C1.2236068 2.0745356 1.2236068 2.0745356 0 0 Z " fill="#BBB4B3" transform="translate(181,256)"/>
<path d="M0 0 C0.66 0.33 1.32 0.66 2 1 C0.65144233 1.80118392 -0.70421743 2.59041608 -2.0625 3.375 C-2.81660156 3.81585938 -3.57070313 4.25671875 -4.34765625 4.7109375 C-10.61226879 7.75559455 -16.60479684 8.33998941 -23.4375 8.5625 C-28.14059058 8.73891282 -32.77756487 8.92761876 -37.44140625 9.5859375 C-40.92360212 9.99111067 -42.19712458 9.98537009 -45 8 C-45.33 8.66 -45.66 9.32 -46 10 C-46.99 9.67 -47.98 9.34 -49 9 C-49.33 10.32 -49.66 11.64 -50 13 C-52 12 -52 12 -53 10 C-53.66 10.66 -54.32 11.32 -55 12 C-55.33 11.67 -55.66 11.34 -56 11 C-56 12.32 -56 13.64 -56 15 C-57.9375 14.6875 -57.9375 14.6875 -60 14 C-60.33 13.01 -60.66 12.02 -61 11 C-54.14805882 6.1057563 -48.70520003 4.71586374 -40.48828125 4.7265625 C-38.82616529 4.70626163 -37.16405597 4.68541063 -35.50195312 4.6640625 C-32.91311005 4.6415742 -30.32453164 4.62502736 -27.7355957 4.61914062 C-14.49786832 4.61713704 -14.49786832 4.61713704 -1.92260742 0.75537109 C-1.28814697 0.50609863 -0.65368652 0.25682617 0 0 Z " fill="#5E504D" transform="translate(325,243)"/>
<path d="M0 0 C3 1 3 1 4.33447266 3.54443359 C4.7732373 4.65125488 5.21200195 5.75807617 5.6640625 6.8984375 C6.14617187 8.09984375 6.62828125 9.30125 7.125 10.5390625 C7.62517116 11.81764139 8.12516928 13.09628799 8.625 14.375 C9.13181042 15.6462333 9.63961149 16.91707212 10.1484375 18.1875 C13.70939217 27.12817651 13.70939217 27.12817651 15 31 C11.7 31 8.4 31 5 31 C5.99 30.67 6.98 30.34 8 30 C7.67 28.02 7.34 26.04 7 24 C1.06 24 -4.88 24 -11 24 C-11.33 24.66 -11.66 25.32 -12 26 C-11.25 21.25 -11.25 21.25 -9 19 C-9 19.99 -9 20.98 -9 22 C-4.05 22.33 0.9 22.66 6 23 C4.88315758 20.18400426 3.75703794 17.3723799 2.625 14.5625 C2.30789062 13.76005859 1.99078125 12.95761719 1.6640625 12.13085938 C1.3546875 11.36708984 1.0453125 10.60332031 0.7265625 9.81640625 C0.44377441 9.10943604 0.16098633 8.40246582 -0.13037109 7.67407227 C-0.89057933 5.80989123 -0.89057933 5.80989123 -3 5 C-3 4.01 -3 3.02 -3 2 C-2.01 1.34 -1.02 0.68 0 0 Z " fill="#6B5D5B" transform="translate(181,301)"/>
<path d="M0 0 C2.75979741 3.28585851 4.18309468 6.62228796 5.6875 10.625 C6.12449219 11.77226562 6.56148437 12.91953125 7.01171875 14.1015625 C8 17 8 17 8 19 C2.72 19 -2.56 19 -8 19 C-6.78808438 12.63744297 -5.23859333 6.66753833 -2 1 C-1.34 0.67 -0.68 0.34 0 0 Z " fill="#EDECEB" transform="translate(179,305)"/>
<path d="M0 0 C3.63 0 7.26 0 11 0 C10.34 0.66 9.68 1.32 9 2 C8.518363 5.77133911 8.62960995 9.57640331 8.625 13.375 C8.60050781 14.42945313 8.57601563 15.48390625 8.55078125 16.5703125 C8.54691406 17.58609375 8.54304688 18.601875 8.5390625 19.6484375 C8.53084473 20.57833496 8.52262695 21.50823242 8.51416016 22.46630859 C9.14949175 25.77961076 10.35728991 26.96184299 13 29 C17.26089509 29.45652447 20.35042135 29.33573034 24 27 C24 27.66 24 28.32 24 29 C19.49853087 31.88555713 16.27552635 32.43072913 11.12109375 31.6484375 C7.77422335 30.62526902 6.08117534 28.73154263 4 26 C3.04598585 23.13795754 2.83769254 21.16463673 2.75390625 18.18359375 C2.70459961 16.79043945 2.70459961 16.79043945 2.65429688 15.36914062 C2.59298046 13.41092918 2.5357041 11.45258715 2.48242188 9.49414062 C2.44826172 8.56666016 2.41410156 7.63917969 2.37890625 6.68359375 C2.34132202 5.40826782 2.34132202 5.40826782 2.30297852 4.10717773 C2.18379667 1.78428122 2.18379667 1.78428122 0 0 Z " fill="#6D5F5D" transform="translate(333,301)"/>
<path d="M0 0 C3.63 0 7.26 0 11 0 C10.34 0.66 9.68 1.32 9 2 C8.518363 5.77133911 8.62960995 9.57640331 8.625 13.375 C8.60050781 14.42945313 8.57601562 15.48390625 8.55078125 16.5703125 C8.54691406 17.58609375 8.54304687 18.601875 8.5390625 19.6484375 C8.53084473 20.57833496 8.52262695 21.50823242 8.51416016 22.46630859 C9.14949175 25.77961076 10.35728991 26.96184299 13 29 C17.26089509 29.45652447 20.35042135 29.33573034 24 27 C24 27.66 24 28.32 24 29 C19.49853087 31.88555713 16.27552635 32.43072913 11.12109375 31.6484375 C7.77422335 30.62526902 6.08117534 28.73154263 4 26 C3.04598585 23.13795754 2.83769254 21.16463673 2.75390625 18.18359375 C2.70459961 16.79043945 2.70459961 16.79043945 2.65429688 15.36914062 C2.59298046 13.41092918 2.5357041 11.45258715 2.48242188 9.49414062 C2.44826172 8.56666016 2.41410156 7.63917969 2.37890625 6.68359375 C2.34132202 5.40826782 2.34132202 5.40826782 2.30297852 4.10717773 C2.18379667 1.78428122 2.18379667 1.78428122 0 0 Z " fill="#6D5F5D" transform="translate(199,301)"/>
<path d="M0 0 C1.98 0 3.96 0 6 0 C5.7997696 11.32211918 3.30514509 21.24303334 0 32 C-0.33 32 -0.66 32 -1 32 C-0.98839844 31.10796875 -0.97679687 30.2159375 -0.96484375 29.296875 C-0.95582031 28.12640625 -0.94679687 26.9559375 -0.9375 25.75 C-0.92589844 24.58984375 -0.91429687 23.4296875 -0.90234375 22.234375 C-0.98277806 19.57039065 -1.21299137 17.51612977 -2 15 C-3.11111111 11.22222222 -3.11111111 11.22222222 -2 9 C-2.99 10.485 -2.99 10.485 -4 12 C-4.66 11.67 -5.32 11.34 -6 11 C-6 8.36 -6 5.72 -6 3 C-5.195625 2.87625 -4.39125 2.7525 -3.5625 2.625 C-2.716875 2.41875 -1.87125 2.2125 -1 2 C-0.67 1.34 -0.34 0.68 0 0 Z " fill="#9A918F" transform="translate(189,194)"/>
<path d="M0 0 C0.33 0.99 0.66 1.98 1 3 C3.31 2.34 5.62 1.68 8 1 C8 1.66 8 2.32 8 3 C17.57 3.33 27.14 3.66 37 4 C37 4.33 37 4.66 37 5 C35.99622314 5.01981934 34.99244629 5.03963867 33.95825195 5.06005859 C30.22135034 5.13633749 26.48482683 5.22501986 22.74829102 5.31738281 C21.1334583 5.35558072 19.51854316 5.39044945 17.90356445 5.421875 C15.57733783 5.46772609 13.25167408 5.52568584 10.92578125 5.5859375 C9.84892815 5.60326431 9.84892815 5.60326431 8.75032043 5.62094116 C4.75341398 5.73767501 1.60665231 6.24740681 -2 8 C-2 8.66 -2 9.32 -2 10 C-4 11.625 -4 11.625 -6 13 C-6.66 12.67 -7.32 12.34 -8 12 C-8 11.34 -8 10.68 -8 10 C-8.7425 10.33 -9.485 10.66 -10.25 11 C-13 12 -13 12 -17 12 C-17 8 -17 8 -14.8125 5.25 C-12 3 -12 3 -9.1875 2.6875 C-8.465625 2.790625 -7.74375 2.89375 -7 3 C-7 3.99 -7 4.98 -7 6 C-6.71125 5.195625 -6.4225 4.39125 -6.125 3.5625 C-4.57187581 0.02482823 -3.82399698 0 0 0 Z " fill="#786C69" transform="translate(274,252)"/>
<path d="M0 0 C3.63 0 7.26 0 11 0 C10.34 0.66 9.68 1.32 9 2 C8.72108853 5.01263725 8.72108853 5.01263725 8.8046875 8.5390625 C8.81113281 9.84101563 8.81757813 11.14296875 8.82421875 12.484375 C8.84093071 13.86458595 8.85786061 15.24479429 8.875 16.625 C8.88502994 18.01301452 8.89415577 19.40103589 8.90234375 20.7890625 C8.92598137 24.19288026 8.95893133 27.59635506 9 31 C6.69 31 4.38 31 2 31 C2.01047363 30.13197754 2.02094727 29.26395508 2.03173828 28.36962891 C2.06579716 25.15300472 2.09088767 21.93647233 2.10986328 18.71972656 C2.11992877 17.32679219 2.13358234 15.93387898 2.15087891 14.54101562 C2.1751022 12.5404564 2.18540814 10.53974385 2.1953125 8.5390625 C2.20578613 7.33459473 2.21625977 6.13012695 2.22705078 4.88916016 C2.30460814 1.87158505 2.30460814 1.87158505 0 0 Z " fill="#6D605E" transform="translate(260,301)"/>
<path d="M0 0 C-8.00952433 5.33968289 -20.48459565 4.79655611 -29.859375 5.6796875 C-35.93716813 6.33674622 -40.83798223 7.42392211 -46.27099609 10.27978516 C-46.84156738 10.51745605 -47.41213867 10.75512695 -48 11 C-48.66 10.67 -49.32 10.34 -50 10 C-47.4276723 5.24119376 -45.17201583 2.72400528 -40 1 C-37.48680311 0.8467185 -34.99597526 0.74285545 -32.48046875 0.68359375 C-31.74427811 0.66281265 -31.00808746 0.64203156 -30.24958801 0.62062073 C-27.89565235 0.55531712 -25.54160292 0.49643075 -23.1875 0.4375 C-21.61392127 0.3942796 -20.04035334 0.3506642 -18.46679688 0.30664062 C-12.31054204 0.13876015 -6.15937184 -0.0282127 0 0 Z " fill="#F7F6F6" transform="translate(317,256)"/>
<path d="M0 0 C0.66 0.33 1.32 0.66 2 1 C1.67 1.33 1.34 1.66 1 2 C0.92851801 3.35243917 0.91600546 4.70834367 0.9375 6.0625 C0.958125 7.361875 0.97875 8.66125 1 10 C1.66386719 10.18175781 2.32773438 10.36351562 3.01171875 10.55078125 C8.77287069 12.1908172 13.67174555 13.67174555 18 18 C18.35173852 21.79877599 18.52701444 24.14360153 16.5 27.4375 C16.005 27.953125 15.51 28.46875 15 29 C14.34 28.67 13.68 28.34 13 28 C13.33 25.69 13.66 23.38 14 21 C13.14728516 20.63648438 13.14728516 20.63648438 12.27734375 20.265625 C-0.99765074 14.50352388 -0.99765074 14.50352388 -4 10 C-4.375 7.0625 -4.375 7.0625 -4 4 C-2 1.625 -2 1.625 0 0 Z " fill="#655755" transform="translate(143,302)"/>
<path d="M0 0 C1.65 0 3.3 0 5 0 C5.33 9.24 5.66 18.48 6 28 C9.96 28 13.92 28 18 28 C16 30 16 30 14.12060547 30.22705078 C13.37697754 30.21657715 12.63334961 30.20610352 11.8671875 30.1953125 C11.06152344 30.18886719 10.25585938 30.18242187 9.42578125 30.17578125 C8.58402344 30.15902344 7.74226563 30.14226562 6.875 30.125 C5.60076172 30.11146484 5.60076172 30.11146484 4.30078125 30.09765625 C2.20040116 30.07405647 0.10016556 30.03818483 -2 30 C-1.34 29.34 -0.68 28.68 0 28 C0.27876767 25.08512078 0.27876767 25.08512078 0.1953125 21.6796875 C0.18564453 19.79443359 0.18564453 19.79443359 0.17578125 17.87109375 C0.15902344 16.55238281 0.14226562 15.23367188 0.125 13.875 C0.11496983 12.53516279 0.10584404 11.19531848 0.09765625 9.85546875 C0.07402075 6.57013427 0.04107234 3.28515535 0 0 Z " fill="#5E504D" transform="translate(303,302)"/>
<path d="M0 0 C3.50951132 7.01902264 3.18177985 14.53923438 3.1875 22.25 C3.19974609 23.13429687 3.21199219 24.01859375 3.22460938 24.9296875 C3.22750977 26.20972656 3.22750977 26.20972656 3.23046875 27.515625 C3.23457764 28.28165039 3.23868652 29.04767578 3.24291992 29.83691406 C3 32 3 32 1 36 C0.34 31.71 -0.32 27.42 -1 23 C-1.99 23 -2.98 23 -4 23 C-5.6875 21 -5.6875 21 -7 19 C-6.67 18.34 -6.34 17.68 -6 17 C-5.01 17 -4.02 17 -3 17 C-3.33 15.68 -3.66 14.36 -4 13 C-4.66 13 -5.32 13 -6 13 C-5.67 12.34 -5.34 11.68 -5 11 C-3.68 10.67 -2.36 10.34 -1 10 C-0.67 6.7 -0.34 3.4 0 0 Z " fill="#716462" transform="translate(252,226)"/>
<path d="M0 0 C0.33 0 0.66 0 1 0 C1 1.98 1 3.96 1 6 C0.34 6 -0.32 6 -1 6 C-0.96519531 6.80179688 -0.93039063 7.60359375 -0.89453125 8.4296875 C-0.65261515 18.5901635 -2.10418875 28.04699091 -4 38 C-4.99 37.67 -5.98 37.34 -7 37 C-7.495 35.515 -7.495 35.515 -8 34 C-8.66 33.67 -9.32 33.34 -10 33 C-8.02 32.505 -8.02 32.505 -6 32 C-6.33 31.67 -6.66 31.34 -7 31 C-7.66 31 -8.32 31 -9 31 C-9.20140476 27.37471432 -8.85776765 25.13498292 -7 22 C-6.01 22 -5.02 22 -4 22 C-4 20.68 -4 19.36 -4 18 C-4.66 17.67 -5.32 17.34 -6 17 C-5.7834375 16.15115234 -5.7834375 16.15115234 -5.5625 15.28515625 C-5.376875 14.55167969 -5.19125 13.81820312 -5 13.0625 C-4.814375 12.33160156 -4.62875 11.60070312 -4.4375 10.84765625 C-3.96159748 9.15427575 -3.96159748 9.15427575 -4 8 C-1.21212121 1.21212121 -1.21212121 1.21212121 0 0 Z " fill="#E6E3E3" transform="translate(170,220)"/>
<path d="M0 0 C1.27230469 0.00902344 2.54460937 0.01804687 3.85546875 0.02734375 C5.31919922 0.04474609 5.31919922 0.04474609 6.8125 0.0625 C7.1425 1.0525 7.4725 2.0425 7.8125 3.0625 C10.23656628 5.44125663 12.85747365 7.38910439 15.8125 9.0625 C18.54545895 9.167097 18.54545895 9.167097 20.8125 8.0625 C21.9571875 7.7840625 21.9571875 7.7840625 23.125 7.5 C23.681875 7.355625 24.23875 7.21125 24.8125 7.0625 C24.8125 6.4025 24.8125 5.7425 24.8125 5.0625 C25.8025 5.3925 26.7925 5.7225 27.8125 6.0625 C21.82819214 12.20428965 21.82819214 12.20428965 16.5625 12.5625 C13.63458163 12.55310058 12.29690082 12.46740396 10.02734375 10.5703125 C8.5 8.6875 8.5 8.6875 7.19921875 6.7890625 C5.13612221 4.22036202 3.04753807 3.24823815 -0.1875 2.76171875 C-3.65650923 2.74139252 -5.64790369 2.73874221 -8.6875 4.5625 C-9.1825 5.0575 -9.6775 5.5525 -10.1875 6.0625 C-10.5175 5.4025 -10.8475 4.7425 -11.1875 4.0625 C-10.8575 3.0725 -10.5275 2.0825 -10.1875 1.0625 C-6.62704823 -0.12431726 -3.74941663 -0.03439832 0 0 Z M-13.1875 5.0625 C-12.1975 5.5575 -12.1975 5.5575 -11.1875 6.0625 C-12.1775 6.5575 -12.1775 6.5575 -13.1875 7.0625 C-13.1875 6.4025 -13.1875 5.7425 -13.1875 5.0625 Z " fill="#5E4F4D" transform="translate(257.1875,277.9375)"/>
<path d="M0 0 C4.86884881 0.08394567 7.97675813 0.34332932 11.5 3.875 C14.52497805 7.8725868 14.68343909 11.51216049 14.39453125 16.41015625 C13.69956365 20.9721713 12.30949454 23.8775761 8.8125 26.875 C8.214375 27.24625 7.61625 27.6175 7 28 C6.34 27.67 5.68 27.34 5 27 C5.7115625 26.1028125 5.7115625 26.1028125 6.4375 25.1875 C9.59003468 20.77395145 9.48260398 16.21927266 9 11 C7.21673375 5.74927161 4.68536091 3.81121655 0 1 C0 0.67 0 0.34 0 0 Z " fill="#645653" transform="translate(316,302)"/>
<path d="M0 0 C0.71607422 -0.00773437 1.43214844 -0.01546875 2.16992188 -0.0234375 C5.95219269 -0.00941611 8.85630678 0.14044206 12.0625 2.25 C11.7325 2.58 11.4025 2.91 11.0625 3.25 C12.0525 4.24 13.0425 5.23 14.0625 6.25 C13.4025 7.9 12.7425 9.55 12.0625 11.25 C3.1525 10.92 -5.7575 10.59 -14.9375 10.25 C-14.9375 9.92 -14.9375 9.59 -14.9375 9.25 C-8.0075 8.26 -8.0075 8.26 -0.9375 7.25 C-0.9375 6.92 -0.9375 6.59 -0.9375 6.25 C2.3625 5.92 5.6625 5.59 9.0625 5.25 C6.53090995 2.14707313 6.53090995 2.14707313 4.16137695 1.90942383 C3.46488037 1.92513428 2.76838379 1.94084473 2.05078125 1.95703125 C1.29345703 1.96669922 0.53613281 1.97636719 -0.24414062 1.98632812 C-1.02982422 2.01146484 -1.81550781 2.03660156 -2.625 2.0625 C-3.42228516 2.07603516 -4.21957031 2.08957031 -5.04101562 2.10351562 C-7.00679967 2.13882911 -8.97223582 2.19263553 -10.9375 2.25 C-7.21425349 -0.23216434 -4.3052041 -0.04625107 0 0 Z " fill="#AAA3A1" transform="translate(228.9375,268.75)"/>
<path d="M0 0 C1.10504883 0.00580078 1.10504883 0.00580078 2.23242188 0.01171875 C2.95751953 0.00785156 3.68261719 0.00398437 4.4296875 0 C7.89440828 0.00633984 11.11010957 0.04213515 14.41992188 1.13671875 C14.08992188 2.45671875 13.75992188 3.77671875 13.41992188 5.13671875 C12.26363281 5.33587891 12.26363281 5.33587891 11.08398438 5.5390625 C10.08109375 5.71566406 9.07820312 5.89226562 8.04492188 6.07421875 C6.54832031 6.33525391 6.54832031 6.33525391 5.02148438 6.6015625 C2.45082531 7.01383937 2.45082531 7.01383937 0.41992188 8.13671875 C-0.57007813 7.47671875 -1.56007812 6.81671875 -2.58007812 6.13671875 C-3.57007813 6.46671875 -4.56007812 6.79671875 -5.58007812 7.13671875 C-5.96141111 5.14531315 -6.29333395 3.14392798 -6.58007812 1.13671875 C-4.78676826 -0.65659111 -2.38426919 0.00438688 0 0 Z " fill="#A69E9D" transform="translate(217.580078125,239.86328125)"/>
<path d="M0 0 C9.24 0 18.48 0 28 0 C27.34 2.97 26.68 5.94 26 9 C25.67 9 25.34 9 25 9 C24.814375 8.05125 24.62875 7.1025 24.4375 6.125 C23.963125 5.09375 23.48875 4.0625 23 3 C20.69 2.34 18.38 1.68 16 1 C16 10.24 16 19.48 16 29 C15.67 29 15.34 29 15 29 C15 19.76 15 10.52 15 1 C4.52928824 1.69487131 4.52928824 1.69487131 1.375 6.125 C0.92125 7.07375 0.4675 8.0225 0 9 C-0.33 9 -0.66 9 -1 9 C-0.67 6.03 -0.34 3.06 0 0 Z " fill="#A09796" transform="translate(231,301)"/>
<path d="M0 0 C7.59 0 15.18 0 23 0 C23.33 1.98 23.66 3.96 24 6 C23.030625 5.360625 22.06125 4.72125 21.0625 4.0625 C16.76403412 1.56974213 12.91524535 1.30247664 8 1 C8 5.62 8 10.24 8 15 C14.91295034 14.72728459 14.91295034 14.72728459 21 12 C21 14.64 21 17.28 21 20 C20.34 19.67 19.68 19.34 19 19 C19 18.34 19 17.68 19 17 C15.37 16.67 11.74 16.34 8 16 C8 20.62 8 25.24 8 30 C7.67 30 7.34 30 7 30 C7 20.43 7 10.86 7 1 C5.35 1.33 3.7 1.66 2 2 C1.34 1.34 0.68 0.68 0 0 Z " fill="#968D8B" transform="translate(273,301)"/>
<path d="M0 0 C-1.25541557 2.51083114 -2.50063488 2.87125446 -5 4 C-5.43386092 7.87797662 -5.43386092 7.87797662 -3.5 9.75 C-3.005 10.1625 -2.51 10.575 -2 11 C-5.33333333 12.66666667 -8.66666667 14.33333333 -12 16 C-12.17988833 11.41284748 -11.90860964 8.17508359 -10 4 C-10 3.34 -10 2.68 -10 2 C-6.37626474 -0.79545292 -4.37834956 -1.37605272 0 0 Z " fill="#908684" transform="translate(268,201)"/>
<path d="M0 0 C1.11761719 0.07831055 1.11761719 0.07831055 2.2578125 0.15820312 C4.08894861 0.2873217 5.91953813 0.42415114 7.75 0.5625 C7.75 0.8925 7.75 1.2225 7.75 1.5625 C6.78320312 1.59988281 5.81640625 1.63726562 4.8203125 1.67578125 C-9.98169487 2.16514677 -9.98169487 2.16514677 -22.25 9.5625 C-22.57059788 12.32503498 -22.64328116 14.46806296 -22.4375 17.1875 C-22.29451455 19.66278911 -22.23545642 22.07845603 -22.25 24.5625 C-22.91 25.2225 -23.57 25.8825 -24.25 26.5625 C-24.58 20.2925 -24.91 14.0225 -25.25 7.5625 C-10.59115242 -0.81398433 -10.59115242 -0.81398433 0 0 Z " fill="#776B68" transform="translate(276.25,194.4375)"/>
<path d="M0 0 C-0.08984375 1.828125 -0.08984375 1.828125 -1 4 C-3.94140625 5.484375 -3.94140625 5.484375 -7.5625 6.75 C-9.35880859 7.39195312 -9.35880859 7.39195312 -11.19140625 8.046875 C-12.11824219 8.36140625 -13.04507812 8.6759375 -14 9 C-14 8.34 -14 7.68 -14 7 C-15.65 7.33 -17.3 7.66 -19 8 C-18.34 7.67 -17.68 7.34 -17 7 C-16.67 6.01 -16.34 5.02 -16 4 C-14.00390625 2.8671875 -14.00390625 2.8671875 -11.5625 1.875 C-10.35787109 1.37613281 -10.35787109 1.37613281 -9.12890625 0.8671875 C-8.07509766 0.43792969 -8.07509766 0.43792969 -7 0 C-4.3333581 -1.33332095 -2.83319697 -0.67102033 0 0 Z " fill="#EEECEC" transform="translate(342,254)"/>
<path d="M0 0 C0 0.33 0 0.66 0 1 C0.63808594 1.04898438 1.27617187 1.09796875 1.93359375 1.1484375 C2.75988281 1.22320312 3.58617187 1.29796875 4.4375 1.375 C5.26121094 1.44460937 6.08492188 1.51421875 6.93359375 1.5859375 C7.61550781 1.72257813 8.29742187 1.85921875 9 2 C9.33 2.66 9.66 3.32 10 4 C1.42857143 5.42857143 1.42857143 5.42857143 -2 3 C-2.33 3.66 -2.66 4.32 -3 5 C-3.99 4.67 -4.98 4.34 -6 4 C-6.33 5.32 -6.66 6.64 -7 8 C-9 7 -9 7 -10 5 C-10.66 5.66 -11.32 6.32 -12 7 C-12.33 6.67 -12.66 6.34 -13 6 C-13 7.32 -13 8.64 -13 10 C-14.9375 9.6875 -14.9375 9.6875 -17 9 C-17.33 8.01 -17.66 7.02 -18 6 C-12.04814971 1.74867836 -7.37338457 -0.35111355 0 0 Z " fill="#726562" transform="translate(282,248)"/>
<path d="M0 0 C6.81987029 0.43300764 11.91643021 1.90787824 18 5 C17.01 3.68 16.02 2.36 15 1 C18.35620271 2.38877354 20.07298728 3.91677965 22 7 C22 7.66 22 8.32 22 9 C24.64 9.33 27.28 9.66 30 10 C30 10.33 30 10.66 30 11 C28.37536158 11.05395478 26.75021459 11.09277195 25.125 11.125 C23.76761719 11.15980469 23.76761719 11.15980469 22.3828125 11.1953125 C20 11 20 11 18 9 C16.28974245 8.32497297 14.55655804 7.70715455 12.8125 7.125 C8.16677521 5.49899632 4.17205288 3.59594401 0 1 C0 0.67 0 0.34 0 0 Z " fill="#958C8A" transform="translate(228,262)"/>
<path d="M0 0 C1.67542976 0.28604898 3.34385343 0.61781233 5 1 C4.67 2.65 4.34 4.3 4 6 C-1.06409602 7.89059585 -5.50623854 9.53597673 -11 9 C-11.66 8.67 -12.32 8.34 -13 8 C-13 7.34 -13 6.68 -13 6 C-12.14535156 5.65066406 -11.29070312 5.30132812 -10.41015625 4.94140625 C-9.30542969 4.48636719 -8.20070313 4.03132813 -7.0625 3.5625 C-5.96035156 3.11003906 -4.85820312 2.65757812 -3.72265625 2.19140625 C-1.13431084 1.25575392 -1.13431084 1.25575392 0 0 Z " fill="#7D726F" transform="translate(342,256)"/>
<path d="M0 0 C4.75 -0.125 4.75 -0.125 7 1 C6.67 2.32 6.34 3.64 6 5 C6.99 5 7.98 5 9 5 C9.33 6.32 9.66 7.64 10 9 C5.32798795 10.20568053 0.78503708 10.09382426 -4 10 C-3 7 -3 7 -0.9375 5.8125 C-0.298125 5.544375 0.34125 5.27625 1 5 C1.2236068 2.0745356 1.2236068 2.0745356 0 0 Z " fill="#BEB9B7" transform="translate(181,256)"/>
<path d="M0 0 C0.33 0 0.66 0 1 0 C2.01630308 10.25336889 -1.02064386 19.32773311 -4 29 C-4.33 29 -4.66 29 -5 29 C-5.13438988 21.44430226 -4.89864143 15.06543848 -2 8 C-1.64386903 6.33805547 -1.30791692 4.671549 -1 3 C-0.67 2.01 -0.34 1.02 0 0 Z " fill="#6A5D5A" transform="translate(193,197)"/>
<path d="M0 0 C0.99 0.33 1.98 0.66 3 1 C3.144375 1.9075 3.28875 2.815 3.4375 3.75 C4.1515314 7.87551476 5.19194236 11.53280878 6.6875 15.4375 C7.72314016 18.50905715 8.06385326 19.69988968 7.375 22.9375 C6 25 6 25 3 27 C3.350625 26.236875 3.70125 25.47375 4.0625 24.6875 C5.32360884 21.95240621 5.32360884 21.95240621 4 19 C3.01 18.67 2.02 18.34 1 18 C1.18433594 17.28070313 1.36867188 16.56140625 1.55859375 15.8203125 C2.03039829 12.80577376 1.75321506 10.82746829 1.0625 7.875 C0.4250003 5.09702118 0 2.86531678 0 0 Z " fill="#C5C0BF" transform="translate(329,222)"/>
<path d="M0 0 C2.27076842 -0.02699725 4.54162821 -0.04639453 6.8125 -0.0625 C8.07707031 -0.07410156 9.34164062 -0.08570313 10.64453125 -0.09765625 C14 0 14 0 17 1 C16.67 2.65 16.34 4.3 16 6 C11.05 5.67 6.1 5.34 1 5 C1.66 4.01 2.32 3.02 3 2 C2.01 1.34 1.02 0.68 0 0 Z " fill="#ACA4A3" transform="translate(225,252)"/>
<path d="M0 0 C0.33 0.66 0.66 1.32 1 2 C2.8253125 1.7834375 2.8253125 1.7834375 4.6875 1.5625 C5.37199219 1.48128906 6.05648438 1.40007812 6.76171875 1.31640625 C9.03395231 1.02546813 9.03395231 1.02546813 11.375 0.46875 C14.40158243 -0.07171115 17.24000641 -0.09626367 20.3125 -0.0625 C21.91544922 -0.04896484 21.91544922 -0.04896484 23.55078125 -0.03515625 C24.35902344 -0.02355469 25.16726563 -0.01195312 26 0 C26 0.33 26 0.66 26 1 C24.11667969 1.27263672 24.11667969 1.27263672 22.1953125 1.55078125 C9.40463079 3.42889149 9.40463079 3.42889149 -3 7 C-3.66 6.34 -4.32 5.68 -5 5 C-4.34 4.34 -3.68 3.68 -3 3 C-3.66 2.67 -4.32 2.34 -5 2 C-2 0 -2 0 0 0 Z " fill="#918785" transform="translate(273,265)"/>
<path d="M0 0 C2.00875442 -0.27571139 4.01178687 -0.60235737 6 -1 C6 -0.01 6 0.98 6 2 C5.24074219 2.19335938 4.48148437 2.38671875 3.69921875 2.5859375 C2.20841797 2.97652344 2.20841797 2.97652344 0.6875 3.375 C-0.79169922 3.75785156 -0.79169922 3.75785156 -2.30078125 4.1484375 C-5.1805816 4.91913174 -5.1805816 4.91913174 -8 7 C-8.99 7 -9.98 7 -11 7 C-10.67 6.01 -10.34 5.02 -10 4 C-9.34 4 -8.68 4 -8 4 C-8.33 3.01 -8.66 2.02 -9 1 C-3.375 -1.125 -3.375 -1.125 0 0 Z " fill="#918785" transform="translate(324,266)"/>
<path d="M0 0 C0.66 0.33 1.32 0.66 2 1 C2 1.66 2 2.32 2 3 C0.35 3.66 -1.3 4.32 -3 5 C-2.67 5.99 -2.34 6.98 -2 8 C-2.9375 11.1875 -2.9375 11.1875 -4 14 C-4.66 14 -5.32 14 -6 14 C-6.33 14.99 -6.66 15.98 -7 17 C-8.86715114 7.3077882 -8.86715114 7.3077882 -6.80078125 4.19140625 C-4.69730197 2.47500791 -2.42298037 1.21149018 0 0 Z " fill="#F2F1F0" transform="translate(261,198)"/>
<path d="M0 0 C0 0.66 0 1.32 0 2 C-10.97235411 4.97555366 -21.79322547 4.2576741 -33 3 C-33 2.67 -33 2.34 -33 2 C-32.33468262 1.97494385 -31.66936523 1.9498877 -30.98388672 1.92407227 C-27.94742513 1.80748864 -24.91122654 1.68504649 -21.875 1.5625 C-20.82828125 1.52318359 -19.7815625 1.48386719 -18.703125 1.44335938 C-12.43458142 1.18547625 -6.23480909 0 0 0 Z " fill="#5B4C49" transform="translate(306,192)"/>
<path d="M0 0 C0.96160034 0.31287964 0.96160034 0.31287964 1.94262695 0.63208008 C9.41683023 2.88802763 16.40777497 3.52798601 24.1875 3.6875 C25.90163086 3.73874023 25.90163086 3.73874023 27.65039062 3.79101562 C30.43349538 3.87252915 33.21632336 3.9419867 36 4 C36 4.33 36 4.66 36 5 C30.39 5 24.78 5 19 5 C19 5.66 19 6.32 19 7 C11.58783319 6.64134677 6.43520528 4.64079463 0 1 C0 0.67 0 0.34 0 0 Z " fill="#837876" transform="translate(191,233)"/>
<path d="M0 0 C2.64 0 5.28 0 8 0 C7.34 0.66 6.68 1.32 6 2 C5.66314199 4.08045469 5.66314199 4.08045469 5.65625 6.46484375 C5.62660156 7.34720703 5.59695313 8.22957031 5.56640625 9.13867188 C5.54449219 10.06228516 5.52257812 10.98589844 5.5 11.9375 C5.45659241 13.75934196 5.40485968 15.58100963 5.34375 17.40234375 C5.32505859 18.21179443 5.30636719 19.02124512 5.28710938 19.85522461 C5 22 5 22 3 25 C3 17.41 3 9.82 3 2 C2.01 1.67 1.02 1.34 0 1 C0 0.67 0 0.34 0 0 Z " fill="#AEA7A6" transform="translate(355,301)"/>
<path d="M0 0 C2.64 0 5.28 0 8 0 C7.34 0.66 6.68 1.32 6 2 C5.66314199 4.08045469 5.66314199 4.08045469 5.65625 6.46484375 C5.62660156 7.34720703 5.59695312 8.22957031 5.56640625 9.13867188 C5.54449219 10.06228516 5.52257812 10.98589844 5.5 11.9375 C5.45659241 13.75934196 5.40485968 15.58100963 5.34375 17.40234375 C5.32505859 18.21179443 5.30636719 19.02124512 5.28710938 19.85522461 C5 22 5 22 3 25 C3 17.41 3 9.82 3 2 C2.01 1.67 1.02 1.34 0 1 C0 0.67 0 0.34 0 0 Z " fill="#AEA7A6" transform="translate(221,301)"/>
<path d="M0 0 C3.08404808 0.11020857 6.16691192 0.24075814 9.25 0.375 C10.55904297 0.42140625 10.55904297 0.42140625 11.89453125 0.46875 C13.16103516 0.52675781 13.16103516 0.52675781 14.453125 0.5859375 C15.22817383 0.6173584 16.00322266 0.6487793 16.80175781 0.68115234 C19.20865742 1.03026506 20.89602295 1.80551104 23 3 C19.64908229 3.75363052 16.56890188 4.11979937 13.13671875 4.09765625 C11.80737305 4.09282227 11.80737305 4.09282227 10.45117188 4.08789062 C9.53916016 4.07951172 8.62714844 4.07113281 7.6875 4.0625 C6.75615234 4.05798828 5.82480469 4.05347656 4.86523438 4.04882812 C2.57675627 4.03709234 0.28841192 4.02067363 -2 4 C-2 3.67 -2 3.34 -2 3 C-0.35 2.67 1.3 2.34 3 2 C2.01 1.34 1.02 0.68 0 0 Z " fill="#9A908F" transform="translate(164,275)"/>
<path d="M0 0 C2.02721618 2.39580094 3.04849549 4.15457936 4 7.1875 C4.33 8.115625 4.66 9.04375 5 10 C5.99 10.33 6.98 10.66 8 11 C8.36504603 12.58086048 8.71660506 14.16483907 9.0625 15.75 C9.25972656 16.63171875 9.45695312 17.5134375 9.66015625 18.421875 C10.00298742 21.02266321 9.70340244 22.51848845 9 25 C7.6803392 21.77371408 6.37055472 18.54350696 5.0625 15.3125 C4.68931641 14.40048828 4.31613281 13.48847656 3.93164062 12.54882812 C3.57392578 11.66259766 3.21621094 10.77636719 2.84765625 9.86328125 C2.51773682 9.05157471 2.18781738 8.23986816 1.84790039 7.40356445 C0.98227756 4.94976176 0.44826579 2.56009574 0 0 Z " fill="#766967" transform="translate(321,207)"/>
<path d="M0 0 C0.33 0 0.66 0 1 0 C1 1.98 1 3.96 1 6 C0.34 6 -0.32 6 -1 6 C-1 10.62 -1 15.24 -1 20 C-3.475 19.01 -3.475 19.01 -6 18 C-5.855625 17.36191406 -5.71125 16.72382813 -5.5625 16.06640625 C-5.376875 15.24011719 -5.19125 14.41382813 -5 13.5625 C-4.7215625 12.32693359 -4.7215625 12.32693359 -4.4375 11.06640625 C-3.96547853 9.18898311 -3.96547853 9.18898311 -4 8 C-1.21212121 1.21212121 -1.21212121 1.21212121 0 0 Z " fill="#A9A19F" transform="translate(170,220)"/>
<path d="M0 0 C0.66 0.33 1.32 0.66 2 1 C2.66 1 3.32 1 4 1 C6.33491639 1.32205743 8.66842508 1.65458149 11 2 C7.09130466 5.15702316 3.1385061 8 -2 8 C-1.67 7.34 -1.34 6.68 -1 6 C-1.66 5.67 -2.32 5.34 -3 5 C-3 4.01 -3 3.02 -3 2 C-2.01 1.34 -1.02 0.68 0 0 Z " fill="#A49C9A" transform="translate(263,243)"/>
<path d="M0 0 C0.721875 0.103125 1.44375 0.20625 2.1875 0.3125 C2.1875 1.6325 2.1875 2.9525 2.1875 4.3125 C-1.5625 5.4375 -1.5625 5.4375 -3.8125 4.3125 C-3.8125 5.9625 -3.8125 7.6125 -3.8125 9.3125 C-5.1325 9.3125 -6.4525 9.3125 -7.8125 9.3125 C-7.8125 5.3125 -7.8125 5.3125 -5.625 2.5625 C-2.8125 0.3125 -2.8125 0.3125 0 0 Z " fill="#99908F" transform="translate(264.8125,254.6875)"/>
<path d="M0 0 C0 0.99 0 1.98 0 3 C-4.24491653 7.12006605 -8.39112585 8.79931737 -14.25 9.25 C-17 9 -17 9 -19 7 C-18.37351562 6.95101562 -17.74703125 6.90203125 -17.1015625 6.8515625 C-16.28429687 6.77679688 -15.46703125 6.70203125 -14.625 6.625 C-13.81289063 6.55539063 -13.00078125 6.48578125 -12.1640625 6.4140625 C-9.79665809 6.17107412 -9.79665809 6.17107412 -8 4 C-6.64484905 3.25439486 -5.26729966 2.54869338 -3.875 1.875 C-3.15054687 1.52179688 -2.42609375 1.16859375 -1.6796875 0.8046875 C-1.12539063 0.53914062 -0.57109375 0.27359375 0 0 Z " fill="#998F8E" transform="translate(322,235)"/>
<path d="M0 0 C2.63780286 0.6206595 4.5231146 0.15047135 7.125 -0.5 C6.795 0.49 6.465 1.48 6.125 2.5 C4.1640625 3.4140625 4.1640625 3.4140625 1.75 4.125 C0.95851563 4.36476563 0.16703125 4.60453125 -0.6484375 4.8515625 C-1.38320313 5.06554687 -2.11796875 5.27953125 -2.875 5.5 C-3.865 5.83 -4.855 6.16 -5.875 6.5 C-5.545 4.52 -5.215 2.54 -4.875 0.5 C-1.875 -0.5 -1.875 -0.5 0 0 Z " fill="#756966" transform="translate(303.875,272.5)"/>
<path d="M0 0 C0.66 0.33 1.32 0.66 2 1 C-4.188579 4.91644371 -9.7452991 6.98525061 -17 8 C-17 7.67 -17 7.34 -17 7 C-19.97 6.505 -19.97 6.505 -23 6 C-23 5.67 -23 5.34 -23 5 C-22.26136719 4.97421875 -21.52273438 4.9484375 -20.76171875 4.921875 C-13.98647465 4.54308117 -8.44040157 3.37350211 -2.1796875 0.7421875 C-1.10074219 0.37480469 -1.10074219 0.37480469 0 0 Z " fill="#6F625F" transform="translate(325,243)"/>
<path d="M0 0 C0.99 0 1.98 0 3 0 C3.24915939 1.76813112 3.47366632 3.53974982 3.6875 5.3125 C3.81511719 6.29863281 3.94273437 7.28476563 4.07421875 8.30078125 C4 11 4 11 2.51953125 12.85546875 C2.01808594 13.23316406 1.51664063 13.61085937 1 14 C-0.32 12.35 -1.64 10.7 -3 9 C-2.67 8.34 -2.34 7.68 -2 7 C-1.01 7 -0.02 7 1 7 C0.67 5.68 0.34 4.36 0 3 C-0.66 3 -1.32 3 -2 3 C-1 1 -1 1 0 0 Z " fill="#A69E9C" transform="translate(248,236)"/>
<path d="M0 0 C0.99 0.66 1.98 1.32 3 2 C2.58525633 7.28798182 1.64775386 10.11690718 -2 14 C-2.99 12.68 -3.98 11.36 -5 10 C-4.34 8.68 -3.68 7.36 -3 6 C-2.01 7.485 -2.01 7.485 -1 9 C-0.67 6.03 -0.34 3.06 0 0 Z " fill="#CAC5C4" transform="translate(162,258)"/>
<path d="M0 0 C1.33333333 0.66666667 2.66666667 1.33333333 4 2 C2.52307692 6.67692308 2.52307692 6.67692308 -0.125 8.3125 C-1.053125 8.6528125 -1.053125 8.6528125 -2 9 C-2.99 8.01 -3.98 7.02 -5 6 C-3.4198632 3.84526801 -1.89353366 1.89353366 0 0 Z " fill="#978E8C" transform="translate(180,255)"/>
<path d="M0 0 C-3.25413668 3.93208182 -7.05951428 5.9145134 -12 7 C-12.99 6.67 -13.98 6.34 -15 6 C-14.34 6 -13.68 6 -13 6 C-12.67 5.01 -12.34 4.02 -12 3 C-10.0390625 1.796875 -10.0390625 1.796875 -7.625 0.75 C-6.83351563 0.39421875 -6.04203125 0.0384375 -5.2265625 -0.328125 C-3 -1 -3 -1 0 0 Z " fill="#8E8381" transform="translate(338,255)"/>
<path d="M0 0 C1.6875 0.6875 1.6875 0.6875 4 2 C4.59941406 2.33902344 5.19882813 2.67804688 5.81640625 3.02734375 C7.54858787 4.01066301 9.27470922 5.00463994 11 6 C10.67 6.66 10.34 7.32 10 8 C4.47371099 6.80805531 1.82180842 5.4008703 -2 1 C-1.34 0.67 -0.68 0.34 0 0 Z " fill="#A29997" transform="translate(203,182)"/>
<path d="M0 0 C-0.66 0.66 -1.32 1.32 -2 2 C-3.32 2 -4.64 2 -6 2 C-6.33 2.66 -6.66 3.32 -7 4 C-8.9914056 4.38133299 -10.99279077 4.71325582 -13 5 C-13.99 5.495 -13.99 5.495 -15 6 C-14.34 4.02 -13.68 2.04 -13 0 C-11.58456585 -0.19658808 -10.16755969 -0.38187546 -8.75 -0.5625 C-7.96109375 -0.66691406 -7.1721875 -0.77132813 -6.359375 -0.87890625 C-3.99467126 -1.00027349 -2.2488963 -0.69633257 0 0 Z " fill="#C6C1C0" transform="translate(214,257)"/>
<path d="M0 0 C1.7492214 -0.08142927 3.49954542 -0.13938541 5.25 -0.1875 C6.22453125 -0.22230469 7.1990625 -0.25710938 8.203125 -0.29296875 C11.37468742 0.03924798 12.67040307 0.88672279 15 3 C14.625 5.4375 14.625 5.4375 14 8 C13.01 8.495 13.01 8.495 12 9 C11.690625 8.05125 11.38125 7.1025 11.0625 6.125 C8.73757505 2.60238644 8.22496633 2.46162802 4.3125 1.625 C2.87882872 1.39177118 1.4418981 1.17532514 0 1 C0 0.67 0 0.34 0 0 Z " fill="#6F625F" transform="translate(145,301)"/>
<path d="M0 0 C2.31 0.66 4.62 1.32 7 2 C7.33 4.31 7.66 6.62 8 9 C7.67 8.34 7.34 7.68 7 7 C5.67511887 6.63451555 4.33981486 6.3062434 3 6 C1.6520257 5.36345658 0.31403276 4.70394612 -1 4 C-0.67 2.68 -0.34 1.36 0 0 Z " fill="#978D8B" transform="translate(242,254)"/>
<path d="M0 0 C5.61 0 11.22 0 17 0 C17 0.66 17 1.32 17 2 C14.426671 3.2866645 12.49776962 3.16824551 9.625 3.1875 C8.19027344 3.20876953 8.19027344 3.20876953 6.7265625 3.23046875 C3.96989983 2.99745572 2.35052605 2.40920164 0 1 C0 0.67 0 0.34 0 0 Z " fill="#ACA4A3" transform="translate(170,268)"/>
<path d="M0 0 C3.96 0 7.92 0 12 0 C12 0.66 12 1.32 12 2 C12.66 2 13.32 2 14 2 C14.33 1.34 14.66 0.68 15 0 C15 0.99 15 1.98 15 3 C9.72 3 4.44 3 -1 3 C-0.67 2.01 -0.34 1.02 0 0 Z " fill="#A39B9A" transform="translate(198,284)"/>
<path d="M0 0 C4.29 0 8.58 0 13 0 C12.67 0.99 12.34 1.98 12 3 C8.04 3 4.08 3 0 3 C0 2.01 0 1.02 0 0 Z " fill="#908684" transform="translate(161,284)"/>
<path d="M0 0 C0.33 0 0.66 0 1 0 C0.47462276 5.0302076 -0.10594786 10.01885239 -1 15 C0.65 15 2.3 15 4 15 C1.38058783 16.74627478 -0.03824877 17.38722388 -3 18 C-5.06510249 11.80469253 -2.03791819 5.88304686 0 0 Z " fill="#60514E" transform="translate(159,268)"/>
<path d="M0 0 C0.99 0.33 1.98 0.66 3 1 C3.33 2.98 3.66 4.96 4 7 C3.34 7 2.68 7 2 7 C1.67 7.99 1.34 8.98 1 10 C1 8.35 1 6.7 1 5 C0.34 5 -0.32 5 -1 5 C-1.33 6.65 -1.66 8.3 -2 10 C-2.66 9.34 -3.32 8.68 -4 8 C-3.40138258 5.64828869 -2.73075648 3.3140622 -2 1 C-1.34 0.67 -0.68 0.34 0 0 Z " fill="#948B89" transform="translate(162,253)"/>
<path d="M0 0 C1 2 1 2 -1 9 C-6.61 8.67 -12.22 8.34 -18 8 C-18 7.67 -18 7.34 -18 7 C-16.78763672 6.97873047 -16.78763672 6.97873047 -15.55078125 6.95703125 C-8.55214381 6.92503016 -8.55214381 6.92503016 -2.8125 3.5 C-2.214375 2.675 -1.61625 1.85 -1 1 C-0.67 0.67 -0.34 0.34 0 0 Z " fill="#726562" transform="translate(298,324)"/>
<path d="M0 0 C0 0.66 0 1.32 0 2 C-1.40945366 2.56016748 -2.8280031 3.09748502 -4.25 3.625 C-5.43335938 4.07746094 -5.43335938 4.07746094 -6.640625 4.5390625 C-9.49917715 5.09752136 -10.58959839 4.53690745 -13 3 C-11.40084119 2.30093058 -9.79544955 1.61610532 -8.1875 0.9375 C-7.29417969 0.55464844 -6.40085937 0.17179688 -5.48046875 -0.22265625 C-3 -1 -3 -1 0 0 Z " fill="#DFDDDC" transform="translate(331,252)"/>
<path d="M0 0 C0.66 0.99 1.32 1.98 2 3 C2.86175198 4.07327292 3.7369604 5.13587416 4.625 6.1875 C5.800625 7.5796875 5.800625 7.5796875 7 9 C0.47692308 8.38461538 0.47692308 8.38461538 -1.9375 6.4375 C-2.4634375 5.7259375 -2.4634375 5.7259375 -3 5 C-2.01 3.35 -1.02 1.7 0 0 Z " fill="#6B5E5B" transform="translate(141,323)"/>
<path d="M0 0 C3.35620271 1.38877354 5.07298728 2.91677965 7 6 C7 6.66 7 7.32 7 8 C9.64 8.33 12.28 8.66 15 9 C15 9.33 15 9.66 15 10 C13.37536158 10.05395478 11.75021459 10.09277195 10.125 10.125 C8.76761719 10.15980469 8.76761719 10.15980469 7.3828125 10.1953125 C5 10 5 10 3 8 C2.34 7.01 1.68 6.02 1 5 C1.66 4.67 2.32 4.34 3 4 C2.01 2.68 1.02 1.36 0 0 Z " fill="#B4ADAC" transform="translate(243,263)"/>
<path d="M0 0 C-0.99 0.33 -1.98 0.66 -3 1 C-4.20882096 3.00016466 -4.20882096 3.00016466 -5 5 C-5.66 4.67 -6.32 4.34 -7 4 C-7 5.32 -7 6.64 -7 8 C-8.9375 7.6875 -8.9375 7.6875 -11 7 C-11.33 6.01 -11.66 5.02 -12 4 C-4.17391304 -1.39130435 -4.17391304 -1.39130435 0 0 Z " fill="#6A5C5A" transform="translate(276,250)"/>
<path d="M0 0 C5.94 1.485 5.94 1.485 12 3 C12 3.33 12 3.66 12 4 C8.37 4 4.74 4 1 4 C2.32 4.66 3.64 5.32 5 6 C2.50907189 7.24546405 1.58919267 6.7767578 -1 6 C-0.67 4.02 -0.34 2.04 0 0 Z " fill="#D9D6D5" transform="translate(166,265)"/>
<path d="M0 0 C-1.875 4.75 -1.875 4.75 -3 7 C-5 6 -5 6 -6 4 C-6.99 3.67 -7.98 3.34 -9 3 C-8.67 2.01 -8.34 1.02 -8 0 C-4.71023192 -1.09658936 -3.28696233 -0.79953138 0 0 Z " fill="#938987" transform="translate(195,259)"/>
<path d="M0 0 C3.26954202 0.56371414 4.82575883 1.49962266 7 4 C3.66666667 5.66666667 0.33333333 7.33333333 -3 9 C-3 7.35 -3 5.7 -3 4 C-1.68 3.67 -0.36 3.34 1 3 C0.67 2.01 0.34 1.02 0 0 Z " fill="#B5AEAD" transform="translate(259,208)"/>
<path d="M0 0 C1.4370809 -0.05422947 2.87475462 -0.09289723 4.3125 -0.125 C5.11300781 -0.14820313 5.91351563 -0.17140625 6.73828125 -0.1953125 C9 0 9 0 12 2 C12 2.66 12 3.32 12 4 C8.37 3.67 4.74 3.34 1 3 C0.67 2.01 0.34 1.02 0 0 Z " fill="#8E8382" transform="translate(251,275)"/>
<path d="M0 0 C0.66 0.66 1.32 1.32 2 2 C1.6730244 4.61580479 1.17960932 6.64078137 0 9 C2.97 9.495 2.97 9.495 6 10 C5.67 10.66 5.34 11.32 5 12 C2.69 11.67 0.38 11.34 -2 11 C-1.85957123 9.35369672 -1.71250671 7.70795821 -1.5625 6.0625 C-1.48128906 5.14597656 -1.40007812 4.22945313 -1.31640625 3.28515625 C-1 1 -1 1 0 0 Z " fill="#796D6A" transform="translate(160,272)"/>
<path d="M0 0 C2.64 0 5.28 0 8 0 C8 0.99 8 1.98 8 3 C6.35 3.66 4.7 4.32 3 5 C2.67 4.34 2.34 3.68 2 3 C1.34 3.66 0.68 4.32 0 5 C-0.66 4.67 -1.32 4.34 -2 4 C-1.34 2.68 -0.68 1.36 0 0 Z " fill="#D2CECE" transform="translate(266,271)"/>
<path d="M0 0 C-0.33 0.66 -0.66 1.32 -1 2 C-5.95 2 -10.9 2 -16 2 C-16 1.34 -16 0.68 -16 0 C-10.39436958 -0.82622671 -5.57710648 -1.06795656 0 0 Z " fill="#625351" transform="translate(192,266)"/>
<path d="M0 0 C0.99 0.495 0.99 0.495 2 1 C1.01 1.495 1.01 1.495 0 2 C0 1.34 0 0.68 0 0 Z M-2 2 C0 3 0 3 1 5 C-5.75 9 -5.75 9 -8 9 C-8 8.34 -8 7.68 -8 7 C-8.66 6.67 -9.32 6.34 -10 6 C-8.71349294 5.30289269 -7.42059335 4.61757124 -6.125 3.9375 C-5.40570313 3.55464844 -4.68640625 3.17179688 -3.9453125 2.77734375 C-3.30335938 2.52082031 -2.66140625 2.26429688 -2 2 Z " fill="#756866" transform="translate(314,185)"/>
<path d="M0 0 C2.31 0.33 4.62 0.66 7 1 C6.67 2.32 6.34 3.64 6 5 C3.125 5.125 3.125 5.125 0 5 C-0.66 4.34 -1.32 3.68 -2 3 C-1.34 2.01 -0.68 1.02 0 0 Z " fill="#A49B9A" transform="translate(225,240)"/>
<path d="M0 0 C0.33 0.66 0.66 1.32 1 2 C1.99 2.33 2.98 2.66 4 3 C3.01 3.33 2.02 3.66 1 4 C1 4.66 1 5.32 1 6 C-0.875 6.625 -0.875 6.625 -3 7 C-3.66 6.34 -4.32 5.68 -5 5 C-4.34 4.34 -3.68 3.68 -3 3 C-3.66 2.67 -4.32 2.34 -5 2 C-2 0 -2 0 0 0 Z " fill="#ADA6A4" transform="translate(273,265)"/>
<path d="M0 0 C0.763125 0.20625 1.52625 0.4125 2.3125 0.625 C1.9825 2.275 1.6525 3.925 1.3125 5.625 C-0.3375 5.955 -1.9875 6.285 -3.6875 6.625 C-3.6875 5.305 -3.6875 3.985 -3.6875 2.625 C-4.3475 2.295 -5.0075 1.965 -5.6875 1.625 C-2.6875 -0.375 -2.6875 -0.375 0 0 Z " fill="#918786" transform="translate(344.6875,256.375)"/>
<path d="M0 0 C0 1.32 0 2.64 0 4 C0.99 4.33 1.98 4.66 3 5 C3 5.33 3 5.66 3 6 C0.36 6 -2.28 6 -5 6 C-5 4.35 -5 2.7 -5 1 C-3 0 -3 0 0 0 Z " fill="#B5AEAC" transform="translate(225,240)"/>
<path d="M0 0 C0 0.99 0 1.98 0 3 C-0.99 3 -1.98 3 -3 3 C-3.33 4.32 -3.66 5.64 -4 7 C-4.66 7 -5.32 7 -6 7 C-6.33 7.66 -6.66 8.32 -7 9 C-7.33 8.01 -7.66 7.02 -8 6 C-3.85714286 0 -3.85714286 0 0 0 Z " fill="#8A7F7D" transform="translate(250,276)"/>
<path d="M0 0 C0 0.66 0 1.32 0 2 C-1.26607607 2.53229326 -2.53810412 3.05044544 -3.8125 3.5625 C-4.52019531 3.85253906 -5.22789062 4.14257812 -5.95703125 4.44140625 C-8 5 -8 5 -11 4 C-7.26280719 0.48264206 -5.13496308 -0.47767098 0 0 Z " fill="#5C4D4A" transform="translate(314,274)"/>
<path d="M0 0 C0.99 0 1.98 0 3 0 C3.33 0.66 3.66 1.32 4 2 C5.32 2 6.64 2 8 2 C8 2.99 8 3.98 8 5 C7.360625 5.12375 6.72125 5.2475 6.0625 5.375 C5.0415625 5.684375 5.0415625 5.684375 4 6 C3.67 6.66 3.34 7.32 3 8 C0 3.375 0 3.375 0 0 Z " fill="#AFA8A7" transform="translate(248,261)"/>
<path d="M0 0 C1.32 1.32 2.64 2.64 4 4 C2.68 5.32 1.36 6.64 0 8 C-1.125 6.25 -1.125 6.25 -2 4 C-1.125 1.75 -1.125 1.75 0 0 Z " fill="#7E7270" transform="translate(172,254)"/>
<path d="M0 0 C2.50298434 2.93828597 3.46930939 5.17902761 4 9 C3.01 9.33 2.02 9.66 1 10 C0.01 7.03 -0.98 4.06 -2 1 C-1.34 0.67 -0.68 0.34 0 0 Z " fill="#817673" transform="translate(337,237)"/>
<path d="M0 0 C0.33 0.99 0.66 1.98 1 3 C0 4 0 4 -1.84765625 4.09765625 C-3.8984375 4.06510417 -5.94921875 4.03255208 -8 4 C-7 1 -7 1 -5.125 -0.25 C-3 -1 -3 -1 0 0 Z " fill="#DDDAD9" transform="translate(185,262)"/>
<path d="M0 0 C0 0.66 0 1.32 0 2 C-9.41002278 4.29612756 -9.41002278 4.29612756 -14 4 C-12.68 3.67 -11.36 3.34 -10 3 C-10 2.34 -10 1.68 -10 1 C-6.56484998 0.37542727 -3.50935186 0 0 0 Z " fill="#655754" transform="translate(306,192)"/>
<path d="M0 0 C0.33 0.66 0.66 1.32 1 2 C-4.32006564 5.41029848 -8.05542387 5.09644404 -14 4 C-10.18153155 1.85158698 -7.36085357 2 -3 2 C-2.01 1.34 -1.02 0.68 0 0 Z " fill="#887D7B" transform="translate(356,328)"/>
<path d="M0 0 C0.33 0.66 0.66 1.32 1 2 C-4.32006564 5.41029848 -8.05542387 5.09644404 -14 4 C-10.18153155 1.85158698 -7.36085357 2 -3 2 C-2.01 1.34 -1.02 0.68 0 0 Z " fill="#887D7B" transform="translate(222,328)"/>
<path d="M0 0 C0.33 1.32 0.66 2.64 1 4 C3.97 4.33 6.94 4.66 10 5 C10 5.33 10 5.66 10 6 C6.37 6 2.74 6 -1 6 C-1.33 6.99 -1.66 7.98 -2 9 C-2.33 8.34 -2.66 7.68 -3 7 C-2.06421005 4.64018187 -1.06652192 2.30368736 0 0 Z " fill="#EFEEEE" transform="translate(163,272)"/>
<path d="M0 0 C2.64 0 5.28 0 8 0 C7.34 0.66 6.68 1.32 6 2 C5.59952556 4.32275177 5.2602896 6.65739357 5 9 C3 7 3 7 2.875 4.375 C2.91625 3.59125 2.9575 2.8075 3 2 C2.01 1.67 1.02 1.34 0 1 C0 0.67 0 0.34 0 0 Z " fill="#928886" transform="translate(355,301)"/>
<path d="M0 0 C2.64 0 5.28 0 8 0 C7.34 0.66 6.68 1.32 6 2 C5.59952556 4.32275177 5.2602896 6.65739357 5 9 C3 7 3 7 2.875 4.375 C2.91625 3.59125 2.9575 2.8075 3 2 C2.01 1.67 1.02 1.34 0 1 C0 0.67 0 0.34 0 0 Z " fill="#928886" transform="translate(221,301)"/>
<path d="M0 0 C3 1 3 1 4.75 4.3125 C5.97848812 7.93653994 6.10235591 8.6258971 5 12 C4.32845067 10.71086513 3.66291141 9.41859796 3 8.125 C2.62875 7.40570313 2.2575 6.68640625 1.875 5.9453125 C1 4 1 4 1 2 C0.34 1.67 -0.32 1.34 -1 1 C-0.67 0.67 -0.34 0.34 0 0 Z " fill="#D6D3D2" transform="translate(321,205)"/>
<path d="M0 0 C2.64 0 5.28 0 8 0 C8 0.99 8 1.98 8 3 C5.69 3.33 3.38 3.66 1 4 C0.67 2.68 0.34 1.36 0 0 Z " fill="#877C7A" transform="translate(270,284)"/>
<path d="M0 0 C0.33 0 0.66 0 1 0 C1.09963504 3.48722633 0.91273798 6.62286946 0 10 C-0.66 10.66 -1.32 11.32 -2 12 C-3.6442351 7.06729471 -2.18615592 4.45975807 0 0 Z " fill="#A79F9D" transform="translate(157,270)"/>
<path d="M0 0 C1.75 1.4375 1.75 1.4375 3 3 C2.67 3.99 2.34 4.98 2 6 C0.02 5.34 -1.96 4.68 -4 4 C-4 3.01 -4 2.02 -4 1 C-2.1875 0.3125 -2.1875 0.3125 0 0 Z " fill="#B6AFAE" transform="translate(174,260)"/>
<path d="M0 0 C0.66 0 1.32 0 2 0 C2.33 0.99 2.66 1.98 3 3 C2.01 3.495 2.01 3.495 1 4 C0.67 2.68 0.34 1.36 0 0 Z M-2 6 C-1.34 6.33 -0.68 6.66 0 7 C-0.66 8.32 -1.32 9.64 -2 11 C-2.99 10.67 -3.98 10.34 -5 10 C-4.67 9.01 -4.34 8.02 -4 7 C-3.34 6.67 -2.68 6.34 -2 6 Z " fill="#F0EFEF" transform="translate(335,242)"/>
<path d="M0 0 C-0.33 0.66 -0.66 1.32 -1 2 C-3.06640625 2.6328125 -3.06640625 2.6328125 -5.5625 3.125 C-6.38878906 3.29257813 -7.21507812 3.46015625 -8.06640625 3.6328125 C-8.70449219 3.75398437 -9.34257812 3.87515625 -10 4 C-10 3.34 -10 2.68 -10 2 C-6.37626474 -0.79545292 -4.37834956 -1.37605272 0 0 Z " fill="#ADA6A4" transform="translate(268,201)"/>
<path d="M0 0 C3.3 0 6.6 0 10 0 C9.67 0.99 9.34 1.98 9 3 C8.0925 2.814375 7.185 2.62875 6.25 2.4375 C3.31685676 2.04265379 1.7355343 2.05308428 -1 3 C-0.67 2.01 -0.34 1.02 0 0 Z " fill="#958B89" transform="translate(175,284)"/>
<path d="M0 0 C0.33 0 0.66 0 1 0 C0.25 6.625 0.25 6.625 -2 10 C-3.05236973 6.65155086 -3.20005388 5.40920111 -1.625 2.1875 C-1.08875 1.465625 -0.5525 0.74375 0 0 Z " fill="#645754" transform="translate(164,265)"/>
<path d="M0 0 C2.64 0.33 5.28 0.66 8 1 C8 2.65 8 4.3 8 6 C7.01 5.67 6.02 5.34 5 5 C5 4.34 5 3.68 5 3 C3.68 3 2.36 3 1 3 C0.67 2.01 0.34 1.02 0 0 Z " fill="#796D6B" transform="translate(181,253)"/>
<path d="M0 0 C0.66 0 1.32 0 2 0 C2.125 2.875 2.125 2.875 2 6 C0 8 0 8 -2 9 C-2.20140476 5.37471432 -1.85776765 3.13498292 0 0 Z " fill="#AAA2A1" transform="translate(163,242)"/>
<path d="M0 0 C0.99 0 1.98 0 3 0 C3.33 2.64 3.66 5.28 4 8 C3.34 8 2.68 8 2 8 C1.34 6.35 0.68 4.7 0 3 C-0.66 3 -1.32 3 -2 3 C-1 1 -1 1 0 0 Z " fill="#9A918F" transform="translate(248,236)"/>
<path d="M0 0 C1.98 0 3.96 0 6 0 C5.34 2.64 4.68 5.28 4 8 C3.67 8 3.34 8 3 8 C2.690625 7.05125 2.38125 6.1025 2.0625 5.125 C1.12605258 2.13919592 1.12605258 2.13919592 0 0 Z " fill="#706360" transform="translate(253,302)"/>
<path d="M0 0 C1.65 0 3.3 0 5 0 C4.19185349 1.33597652 3.37836819 2.668725 2.5625 4 C2.11003906 4.7425 1.65757812 5.485 1.19140625 6.25 C0.79824219 6.8275 0.40507812 7.405 0 8 C-0.33 8 -0.66 8 -1 8 C-0.67 5.36 -0.34 2.72 0 0 Z " fill="#796D6B" transform="translate(231,302)"/>
<path d="M0 0 C-1.65 1.65 -3.3 3.3 -5 5 C-5 4.01 -5 3.02 -5 2 C-6.98 2.99 -6.98 2.99 -9 4 C-8 1 -8 1 -6.1875 -0.25 C-3.66056586 -1.11637742 -2.47778006 -0.88492145 0 0 Z " fill="#968C8B" transform="translate(266,266)"/>
<path d="M0 0 C3.63 0 7.26 0 11 0 C11.33 0.66 11.66 1.32 12 2 C6.140625 3.07421875 6.140625 3.07421875 4 3 C2.68 2.01 1.36 1.02 0 0 Z " fill="#918785" transform="translate(280,250)"/>
<path d="M0 0 C3.7952131 1.49097658 5.61042731 3.75700849 8 7 C5.03 6.01 2.06 5.02 -1 4 C-0.67 2.68 -0.34 1.36 0 0 Z " fill="#A09896" transform="translate(236,243)"/>
<path d="M0 0 C2.6875 0.3125 2.6875 0.3125 5 1 C2.63707344 3.52588702 1.33537489 4.88820837 -2 6 C-2.33 5.01 -2.66 4.02 -3 3 C-1.8125 1.4375 -1.8125 1.4375 0 0 Z " fill="#A79F9D" transform="translate(261,238)"/>
<path d="M0 0 C0.66 0 1.32 0 2 0 C2.74926071 3.66305234 3.2380014 6.42355152 2 10 C1.34 9.67 0.68 9.34 0 9 C0 6 0 3 0 0 Z " fill="#ABA4A2" transform="translate(187,204)"/>
<path d="M0 0 C0.33 0 0.66 0 1 0 C1 1.98 1 3.96 1 6 C0.34 6 -0.32 6 -1 6 C-1 6.66 -1 7.32 -1 8 C-1.99 7.67 -2.98 7.34 -4 7 C-2.68 4.69 -1.36 2.38 0 0 Z " fill="#958C8A" transform="translate(170,220)"/>
<path d="M0 0 C2.0625 0.75 2.0625 0.75 4 2 C4.33 2.99 4.66 3.98 5 5 C2.625 4.6875 2.625 4.6875 0 4 C-0.66 3.01 -1.32 2.02 -2 1 C-1.34 0.67 -0.68 0.34 0 0 Z " fill="#ABA3A2" transform="translate(203,182)"/>
<path d="M0 0 C0.33 0.99 0.66 1.98 1 3 C-0.375 4.5 -0.375 4.5 -2 6 C-2.66 6 -3.32 6 -4 6 C-4.33 4.35 -4.66 2.7 -5 1 C-4.01 1.33 -3.02 1.66 -2 2 C-1.34 1.34 -0.68 0.68 0 0 Z " fill="#766967" transform="translate(246,283)"/>
<path d="M0 0 C0 0.99 0 1.98 0 3 C-1.98 3.99 -3.96 4.98 -6 6 C-6 3 -6 3 -4 1 C-1.875 0.375 -1.875 0.375 0 0 Z " fill="#E9E7E6" transform="translate(270,267)"/>
<path d="M0 0 C-0.99 0.495 -0.99 0.495 -2 1 C-2.33 1.66 -2.66 2.32 -3 3 C-7 3 -7 3 -9 2 C-6.98558063 -2.02883874 -3.72407517 -0.90585612 0 0 Z " fill="#6A5C59" transform="translate(331,264)"/>
<path d="M0 0 C-0.33 1.32 -0.66 2.64 -1 4 C-2.65 4.33 -4.3 4.66 -6 5 C-5.625 3.0625 -5.625 3.0625 -5 1 C-3 0 -3 0 0 0 Z " fill="#BDB8B6" transform="translate(274,252)"/>
<path d="M0 0 C2.62187494 1.04874998 3.79371361 1.64931313 5.25 4.125 C5.4975 4.74375 5.745 5.3625 6 6 C5.34 6.66 4.68 7.32 4 8 C2.66666667 5.33333333 1.33333333 2.66666667 0 0 Z " fill="#A19897" transform="translate(242,197)"/>
<path d="M0 0 C-0.33 0.99 -0.66 1.98 -1 3 C-2.84765625 3.73046875 -2.84765625 3.73046875 -5.0625 4.1875 C-5.79597656 4.34605469 -6.52945312 4.50460937 -7.28515625 4.66796875 C-8.13400391 4.83232422 -8.13400391 4.83232422 -9 5 C-9 4.34 -9 3.68 -9 3 C-3.375 0 -3.375 0 0 0 Z " fill="#948A88" transform="translate(311,272)"/>
<path d="M0 0 C1.65 0.33 3.3 0.66 5 1 C5 1.99 5 2.98 5 4 C3.68 4.33 2.36 4.66 1 5 C1 4.34 1 3.68 1 3 C0.34 3 -0.32 3 -1 3 C-0.67 2.01 -0.34 1.02 0 0 Z " fill="#695C59" transform="translate(332,264)"/>
<path d="M0 0 C0 0.66 0 1.32 0 2 C0.66 2.33 1.32 2.66 2 3 C0.68 3.99 -0.64 4.98 -2 6 C-2.66 5.67 -3.32 5.34 -4 5 C-4 3.68 -4 2.36 -4 1 C-2 0 -2 0 0 0 Z " fill="#9D9492" transform="translate(270,259)"/>
<path d="M0 0 C0.99 0.99 1.98 1.98 3 3 C2.34 4.32 1.68 5.64 1 7 C0.01 6.01 -0.98 5.02 -2 4 C-1.34 2.68 -0.68 1.36 0 0 Z " fill="#857A77" transform="translate(177,257)"/>
<path d="M0 0 C0.66 0.33 1.32 0.66 2 1 C1.67 3.31 1.34 5.62 1 8 C0.34 8 -0.32 8 -1 8 C-1.04241723 5.66705225 -1.04092937 3.33297433 -1 1 C-0.67 0.67 -0.34 0.34 0 0 Z " fill="#C8C3C2" transform="translate(169,255)"/>
<path d="M0 0 C1.65 1.65 3.3 3.3 5 5 C4.34 6.32 3.68 7.64 3 9 C2.01 6.03 1.02 3.06 0 0 Z " fill="#978E8C" transform="translate(244,210)"/>
<path d="M0 0 C0.66 0.66 1.32 1.32 2 2 C1.34 2 0.68 2 0 2 C0 2.66 0 3.32 0 4 C-1.98 4.33 -3.96 4.66 -6 5 C-5.34 4.67 -4.68 4.34 -4 4 C-3.67 3.01 -3.34 2.02 -3 1 C-2.01 0.67 -1.02 0.34 0 0 Z " fill="#ABA3A2" transform="translate(329,257)"/>
<path d="M0 0 C0.66 0.33 1.32 0.66 2 1 C2 1.99 2 2.98 2 4 C0.35 4.66 -1.3 5.32 -3 6 C-3.33 5.01 -3.66 4.02 -4 3 C-2.68 2.01 -1.36 1.02 0 0 Z " fill="#958C8A" transform="translate(263,243)"/>
<path d="M0 0 C1.5625 1.125 1.5625 1.125 3 3 C2.6875 6.1875 2.6875 6.1875 2 9 C1.34 8.67 0.68 8.34 0 8 C0 5.36 0 2.72 0 0 Z " fill="#BDB7B6" transform="translate(183,197)"/>
</svg>
